<svg xmlns="http://www.w3.org/2000/svg" width="850" height="600" style="font-family:Lato,&quot;Helvetica Neue&quot;,Helvetica,Arial,&quot;Liberation Sans&quot;,sans-serif;font-size:18px;background-color:#fff;text-rendering:geometricPrecision;-webkit-font-smoothing:antialiased" version="1.1" viewBox="0 0 850 600"><defs><style>@import url(/fonts.css);</style></defs><defs><pattern id="noDataPattern" width="4" height="4" patternTransform="rotate(-45 2 2)" patternUnits="userSpaceOnUse"><path stroke="#ccc" stroke-width=".7" d="M-1 2h6"/></pattern></defs><path fill="#fff" d="M0 0h850v600H0z" class="background-fill"/><g class="HeaderView"><g transform="translate(769 16)"><svg xmlns="http://www.w3.org/2000/svg" width="65" height="36" fill="none" className="owidLogo" viewBox="0 0 65 36"><path fill="#002147" d="M0 0h64.8v36H0z"/><path fill="#CE261E" d="M0 33.3h64.8V36H0z"/><path fill="#fff" d="M13.8 10.57c0 .64-.11 1.23-.32 1.77a4.2 4.2 0 0 1-.9 1.4 4.08 4.08 0 0 1-1.38.94c-.54.22-1.14.33-1.8.33-.65 0-1.25-.11-1.8-.33a4.15 4.15 0 0 1-1.39-.93 4.2 4.2 0 0 1-.9-1.4A4.83 4.83 0 0 1 5 10.56c0-.63.1-1.22.32-1.76a4.18 4.18 0 0 1 .9-1.4 4.08 4.08 0 0 1 1.38-.93 4.68 4.68 0 0 1 1.8-.34c.66 0 1.26.11 1.8.34a4.08 4.08 0 0 1 2.28 2.33c.21.54.32 1.13.32 1.76Zm-1.66 0c0-.47-.06-.9-.2-1.27a2.67 2.67 0 0 0-.53-.97 2.33 2.33 0 0 0-.87-.6A2.94 2.94 0 0 0 9.4 7.5c-.42 0-.8.07-1.14.21-.34.14-.63.35-.87.61a2.74 2.74 0 0 0-.55.97 3.96 3.96 0 0 0-.19 1.27c0 .48.06.9.2 1.29a2.42 2.42 0 0 0 1.42 1.56c.33.14.71.2 1.13.2.43 0 .8-.06 1.14-.2a2.37 2.37 0 0 0 1.4-1.56 4.01 4.01 0 0 0 .2-1.29Zm3.96-1.81v3.9c0 .39.09.68.26.89.18.2.44.3.79.3.25 0 .5-.06.72-.17a2.58 2.58 0 0 0 .63-.47V8.76H20v6.15h-.91c-.2 0-.32-.09-.38-.27l-.1-.49a4.65 4.65 0 0 1-.4.35 2.58 2.58 0 0 1-.43.27 2.35 2.35 0 0 1-.5.17 2.35 2.35 0 0 1-.57.07c-.34 0-.64-.06-.9-.17a1.82 1.82 0 0 1-.64-.49 2.16 2.16 0 0 1-.4-.73 3.23 3.23 0 0 1-.14-.95V8.76h1.48Zm5.23 6.15V8.76h.87c.15 0 .26.02.32.08s.1.15.12.29l.09.74c.22-.38.47-.68.77-.9.3-.22.63-.33 1-.33.3 0 .55.07.75.21l-.19 1.11c-.01.07-.04.13-.08.16a.28.28 0 0 1-.16.04 1.01 1.01 0 0 1-.25-.04 1.65 1.65 0 0 0-.41-.04c-.3 0-.57.08-.8.25-.21.17-.4.42-.55.75v3.83h-1.48Zm6.02-8.67h1.35a.57.57 0 0 1 .35.1c.1.06.16.15.2.26l1.47 5.2a10.12 10.12 0 0 1 .19.9 5.97 5.97 0 0 1 .22-.9l1.7-5.2a.57.57 0 0 1 .2-.25.54.54 0 0 1 .34-.11h.48a.57.57 0 0 1 .34.1.5.5 0 0 1 .2.26l1.69 5.2c.08.25.16.53.22.85a31.71 31.71 0 0 1 .19-.86l1.47-5.19c.03-.1.1-.18.19-.25a.56.56 0 0 1 .34-.11h1.27l-2.7 8.67h-1.45L33.7 9l-.08-.25a9.5 9.5 0 0 1-.07-.28 4.04 4.04 0 0 1-.15.53L31.5 14.9h-1.46l-2.7-8.67Zm15.42 2.42c.46 0 .88.07 1.25.22s.7.36.96.63.47.6.61 1 .22.83.22 1.31c0 .5-.08.93-.22 1.32a2.85 2.85 0 0 1-.61 1 2.65 2.65 0 0 1-.96.64 3.35 3.35 0 0 1-1.25.22 3.4 3.4 0 0 1-1.25-.22 2.71 2.71 0 0 1-.97-.63 2.92 2.92 0 0 1-.62-1 3.8 3.8 0 0 1-.21-1.33c0-.48.07-.92.21-1.31a2.75 2.75 0 0 1 1.58-1.63 3.4 3.4 0 0 1 1.26-.22Zm0 5.2c.51 0 .9-.17 1.13-.51.25-.35.38-.85.38-1.52s-.13-1.17-.38-1.51c-.24-.35-.62-.53-1.13-.53-.52 0-.9.18-1.15.53-.25.35-.37.85-.37 1.51s.12 1.17.37 1.52c.25.34.63.51 1.15.51Zm3.95 1.05V8.76h.87c.15 0 .26.02.32.08s.1.15.12.29l.1.74c.21-.38.47-.68.76-.9.3-.22.63-.33 1-.33.3 0 .56.07.76.21l-.2 1.11c0 .07-.03.13-.07.16a.28.28 0 0 1-.17.04 1.01 1.01 0 0 1-.24-.04 1.65 1.65 0 0 0-.42-.04c-.3 0-.57.08-.79.25-.22.17-.4.42-.56.75v3.83h-1.48ZM52.96 6v8.91h-1.48V6h1.48Zm5.77 8.91c-.19 0-.32-.09-.38-.27l-.12-.6a3.68 3.68 0 0 1-.4.4 2.5 2.5 0 0 1-.98.5 2.37 2.37 0 0 1-.6.06c-.33 0-.64-.07-.92-.2a2.1 2.1 0 0 1-.73-.61 3.03 3.03 0 0 1-.46-1 5.07 5.07 0 0 1-.17-1.34c0-.45.07-.88.19-1.27s.3-.73.53-1.02c.24-.29.51-.51.84-.67a2.38 2.38 0 0 1 1.09-.25 2.1 2.1 0 0 1 1.54.6V6h1.48v8.91h-.9Zm-1.97-1.08c.3 0 .57-.07.78-.2.22-.12.42-.3.62-.54v-2.76a1.45 1.45 0 0 0-.56-.43 1.6 1.6 0 0 0-.63-.13c-.23 0-.43.04-.61.13a1.21 1.21 0 0 0-.47.38c-.12.17-.22.39-.28.65a4.3 4.3 0 0 0-.02 1.84c.06.25.14.45.25.61.1.16.24.27.4.34.15.07.33.1.52.1Zm-40.43 6.93v6.15h-1.48v-6.15h1.48Zm.22-1.8a.84.84 0 0 1-.07.36.96.96 0 0 1-.21.3 1 1 0 0 1-.3.2.96.96 0 0 1-.38.07.95.95 0 0 1-.36-.07 1.02 1.02 0 0 1-.5-.5.96.96 0 0 1 0-.73 1 1 0 0 1 .2-.3.93.93 0 0 1 .3-.2.9.9 0 0 1 .73 0 .91.91 0 0 1 .3.2.94.94 0 0 1 .3.67Zm1.22 7.95v-6.15h.9c.2 0 .32.09.38.27l.1.48a2.93 2.93 0 0 1 .84-.61 2.3 2.3 0 0 1 1.07-.24c.34 0 .63.06.9.18.25.1.47.27.64.48.18.2.3.45.4.73.09.29.13.6.13.95v3.91h-1.48V23c0-.38-.08-.67-.26-.87-.17-.21-.43-.32-.78-.32-.26 0-.5.06-.72.18a2.58 2.58 0 0 0-.64.47v4.45h-1.48Zm16.45-4.34c0 .64-.1 1.22-.32 1.76-.21.53-.5.99-.9 1.37a4 4 0 0 1-1.38.9 4.87 4.87 0 0 1-1.8.31h-3.3v-8.67h3.3a4.79 4.79 0 0 1 1.8.32 4 4 0 0 1 1.39.9c.38.37.68.83.9 1.36.2.53.31 1.12.31 1.75Zm-1.65 0c0-.47-.06-.9-.2-1.27a2.68 2.68 0 0 0-.54-.96 2.33 2.33 0 0 0-.86-.6 2.94 2.94 0 0 0-1.14-.22h-1.69v6.1h1.69c.42 0 .8-.06 1.14-.2.34-.14.63-.34.86-.6a2.75 2.75 0 0 0 .55-.96 4.01 4.01 0 0 0 .19-1.29Zm7.41 4.34h-.67a.75.75 0 0 1-.33-.06c-.07-.04-.13-.13-.17-.25l-.14-.44c-.15.14-.3.26-.46.37a2.8 2.8 0 0 1-.46.26c-.16.08-.33.13-.51.17a3.07 3.07 0 0 1-1.32-.05 1.62 1.62 0 0 1-.57-.32 1.45 1.45 0 0 1-.37-.52 1.85 1.85 0 0 1-.13-.73c0-.23.06-.46.18-.68.12-.23.33-.44.61-.62.29-.18.67-.33 1.14-.45a8.01 8.01 0 0 1 1.75-.2v-.36c0-.42-.08-.72-.26-.92-.17-.2-.42-.3-.76-.3a1.84 1.84 0 0 0-1.01.28l-.33.19a.66.66 0 0 1-.33.08.43.43 0 0 1-.26-.08.61.61 0 0 1-.17-.2l-.27-.46c.7-.65 1.56-.98 2.56-.98.36 0 .68.06.96.18a1.99 1.99 0 0 1 1.16 1.25c.1.29.16.6.16.96v3.88ZM37.1 26c.15 0 .3-.01.42-.04a1.81 1.81 0 0 0 .69-.33c.1-.09.22-.19.32-.3v-1.04c-.43.02-.79.06-1.08.12a2.8 2.8 0 0 0-.7.2.92.92 0 0 0-.37.3.66.66 0 0 0-.11.36c0 .26.07.45.22.56.16.11.36.17.61.17ZM43.22 27c-.53 0-.94-.15-1.23-.45-.29-.3-.43-.72-.43-1.25v-3.44h-.63a.31.31 0 0 1-.2-.08c-.06-.05-.09-.13-.09-.23v-.6l.99-.15.31-1.68a.3.3 0 0 1 .11-.2.36.36 0 0 1 .22-.06h.77v1.94h1.62v1.06h-1.62v3.33c0 .2.05.35.14.45a.49.49 0 0 0 .39.17.73.73 0 0 0 .39-.1l.12-.07a.2.2 0 0 1 .11-.04.16.16 0 0 1 .11.04c.03.02.06.05.09.1l.44.71c-.21.18-.46.32-.74.41a2.77 2.77 0 0 1-.87.14Zm7.2-.1h-.66a.75.75 0 0 1-.33-.06c-.08-.04-.14-.13-.18-.25l-.13-.44c-.16.14-.31.26-.47.37a2.8 2.8 0 0 1-.46.26c-.16.08-.33.13-.5.17a3.07 3.07 0 0 1-1.33-.05 1.62 1.62 0 0 1-.57-.32 1.45 1.45 0 0 1-.36-.52 1.85 1.85 0 0 1-.14-.73c0-.23.06-.46.18-.68.13-.23.33-.44.62-.62.28-.18.66-.33 1.13-.45a8.01 8.01 0 0 1 1.76-.2v-.36c0-.42-.1-.72-.27-.92-.17-.2-.42-.3-.75-.3a1.84 1.84 0 0 0-1.02.28l-.33.19a.66.66 0 0 1-.33.08.43.43 0 0 1-.25-.08.61.61 0 0 1-.18-.2l-.27-.46c.7-.65 1.56-.98 2.56-.98.36 0 .68.06.96.18a1.99 1.99 0 0 1 1.17 1.25c.1.29.15.6.15.96v3.88ZM47.54 26c.16 0 .3-.01.42-.04a1.88 1.88 0 0 0 .69-.33l.33-.3v-1.04c-.44.02-.8.06-1.09.12a2.8 2.8 0 0 0-.7.2.92.92 0 0 0-.37.3.66.66 0 0 0-.11.36c0 .26.08.45.23.56.15.11.36.17.6.17Z"/></svg></g><a href="/grapher/annual-co2-emissions-per-country?country=~OWID_WRL" rel="noopener" style="font-family:&quot;Playfair Display&quot;,Georgia,&quot;Times New Roman&quot;,&quot;Liberation Serif&quot;,serif" target="_blank"><text x="16" y="39.3" fill="#5b5b5b" font-size="24" font-weight="500"><tspan x="16" y="39.28">Annual CO₂ emissions</tspan></text></a><text x="16" y="63" fill="#5b5b5b" style="font-size:14px;line-height:1.28571"><tspan x="16" y="63">Carbon dioxide (CO₂) emissions from <tspan>fossil fuels and industry</tspan>. Land use change is not included.</tspan></text></g><g class="LineChart"><defs><clipPath id="boundsClip-687"><path d="M84.22 72.8h838v489.6h-838z"/></clipPath></defs><path fill="none" d="M16 82.8h818v469.6H16z"/><g class="DualAxisView"><g class="HorizontalAxis"><path stroke="#999" d="M94.2 529.2v5M763.8 529.2v5M217.8 529.2v5M341.3 529.2v5M464.8 529.2v5M588.4 529.2v5"/><text x="94.22" y="550.4" fill="#666" font-size="16.2" text-anchor="start">1750</text><text x="763.76" y="550.4" fill="#666" font-size="16.2" text-anchor="end">2021</text><text x="217.8" y="550.4" fill="#666" font-size="16.2" text-anchor="middle">1800</text><text x="341.3" y="550.4" fill="#666" font-size="16.2" text-anchor="middle">1850</text><text x="464.8" y="550.4" fill="#666" font-size="16.2" text-anchor="middle">1900</text><text x="588.4" y="550.4" fill="#666" font-size="16.2" text-anchor="middle">1950</text></g><g class="VerticalAxis"><text x="89.22" y="529.2" fill="#666" dy=".32em" font-size="16.2" text-anchor="end">0 t</text><text x="89.22" y="469.9" fill="#666" dy=".32em" font-size="16.2" text-anchor="end">5 billion t</text><text x="89.22" y="410.6" fill="#666" dy=".32em" font-size="16.2" text-anchor="end">10 billion t</text><text x="89.22" y="351.3" fill="#666" dy=".32em" font-size="16.2" text-anchor="end">15 billion t</text><text x="89.22" y="291.9" fill="#666" dy=".32em" font-size="16.2" text-anchor="end">20 billion t</text><text x="89.22" y="232.6" fill="#666" dy=".32em" font-size="16.2" text-anchor="end">25 billion t</text><text x="89.22" y="173.3" fill="#666" dy=".32em" font-size="16.2" text-anchor="end">30 billion t</text><text x="89.22" y="114" fill="#666" dy=".32em" font-size="16.2" text-anchor="end">35 billion t</text></g><g class="AxisGridLines horizontalLines"><path stroke="#999" d="M94.22 529.2h669.54"/><path stroke="#ddd" stroke-dasharray="3,2" d="M94.22 469.9h669.54M94.22 410.6h669.54M94.22 351.3h669.54M94.22 291.9h669.54M94.22 232.6h669.54M94.22 173.3h669.54M94.22 114h669.54"/></g></g><g clip-path="url(#boundsClip-687)"><g class="LineLabels" style="cursor:default"><g class="legendMark"><text x="767.8" y="100.5" fill="#c15065" font-size="13.5" font-weight="400"><tspan x="767.76" y="100.54">World</tspan></text></g></g><g class="Lines"><g><path fill="none" stroke="#ddd" stroke-linecap="round" stroke-linejoin="round" stroke-width="1" d="M94.2 529.1h49.4l2.5-.1H193l2.5-.1h24.7l2.5-.1h19.8l2.4-.1h9.9l2.5-.1h14.8l2.5-.1h7.4l2.5-.1h4.9l2.5-.3 2.4.1h7.5l2.4-.1 2.5-.1h2.5l2.4-.1h2.5l2.5-.1 2.5-.1h2.4l2.5-.1 2.5-.1 2.4-.1 2.5-.1 2.5-.1 2.4-.1 2.5-.1 2.5-.1 2.5-.1 2.4-.1 2.5-.1 2.5-.4 2.4-.1 2.5-.2h2.5l2.5-.1 2.4-.2 2.5-.3 2.5-.2 2.4-.1 2.5-.3 2.5-.3 2.4-.3 2.5-.2 2.5-.4 2.5-.1 2.4-.4 2.5-.1 2.5-.4 2.4-.7 2.5-.5 2.5.5 2.5-.6 2.4-.1 2.5-.2 2.5-.1 2.4-.6 2.5-1.1 2.5-.4 2.4-.6 2.5-.7 2.5-.1 2.5-.1 2.4-.2 2.5-.6 2.5-1.3h2.4l2.5-1.3 2.5-.7 2.5-.2 2.4.2 2.5-.5 2.5-1 2.4-.6 2.5-.9 2.5-1 2.4-1.9 2.5-1.2 2.5-.7 2.5-.6 2.4-2.2 2.5-.3 2.5-1.8 2.4-1.3 2.5-4.2 2.5 1.4 2.5-1.4 2.4-1.7 2.5-.5 2.5-1.9 2.4-3.2 2.5 3.9 2.5.5 2.4-3 2.5-1.8 2.5.6 2.5 5.5 2.4-5.9 2.5 5.1 2.5-1.7 2.4-5.2 2.5-.1 2.5-.5 2.5.8 2.4-4 2.5.2 2.5-3.4 2.4 3.9 2.5 5 2.5 4.1 2.4-2 2.5-3.5 2.5-2.1 2.5-4.4 2.4-3.4 2.5 3.2 2.5-2.9 2.4-4.9 2.5-1.3 2.5.1 2.5-.9 2.4-.9 2.5 10.2 2.5-4.6 2.4-6 2.5-3.2 2.5 2 2.5-9 2.4-4.5 2.5-1 2.5-2.2 2.4-1.6 2.5-7.8 2.5-5.7 2.4-3.1 2.5-2.8 2.5-5.2 2.5-6.3 2.4-.3 2.5-4 2.5-6.2 2.4-6.6 2.5-5.8 2.5-6.5 2.5-4.5 2.4-7.9 2.5-10.1 2.5-13.4 2.4-7.2 2.5-8.6 2.5-10.2 2.4.8 2.5-.4 2.5-11.1 2.5-6.1 2.4-6.8 2.5-6.4 2.5 1.4 2.4 5.5 2.5 1.8 2.5-1.5 2.5-7.8 2.4-7.8 2.5-3.6 2.5-7.7 2.4-9.9 2.5-3.6 2.5-4.1 2.4-5.8 2.5 7.9 2.5-2.7 2.5-1.9 2.4-5.8 2.5-8.3 2.5-1.7 2.4 1.1 2.5-6.2 2.5-8.6 2.5-2.5 2.4-7.3 2.5-16.2 2.5-11.7 2.4-11.6 2.5-11.6 2.5-10.9 2.4-6.8 2.5 6.2 2.5-21.4 2.5-13.3 2.4-6.2 2.5-3.7 2.5-3.1 2.4.3 2.5.4 2.5-6.8 2.5-8.7 2.4-3 2.5 21.6 2.5-22.1"/></g><g><path fill="none" stroke="#fff" stroke-linecap="butt" stroke-linejoin="round" stroke-width="2.5" d="M94.2 529.1h49.4l2.5-.1H193l2.5-.1h24.7l2.5-.1h19.8l2.4-.1h9.9l2.5-.1h14.8l2.5-.1h7.4l2.5-.1h4.9l2.5-.3 2.4.1h7.5l2.4-.1 2.5-.1h2.5l2.4-.1h2.5l2.5-.1 2.5-.1h2.4l2.5-.1 2.5-.1 2.4-.1 2.5-.1 2.5-.1 2.4-.1 2.5-.1 2.5-.1 2.5-.1 2.4-.1 2.5-.1 2.5-.4 2.4-.1 2.5-.2h2.5l2.5-.1 2.4-.2 2.5-.3 2.5-.2 2.4-.1 2.5-.3 2.5-.3 2.4-.3 2.5-.2 2.5-.4 2.5-.1 2.4-.4 2.5-.1 2.5-.4 2.4-.7 2.5-.5 2.5.5 2.5-.6 2.4-.1 2.5-.2 2.5-.1 2.4-.6 2.5-1.1 2.5-.4 2.4-.6 2.5-.7 2.5-.1 2.5-.1 2.4-.2 2.5-.6 2.5-1.3h2.4l2.5-1.3 2.5-.7 2.5-.2 2.4.2 2.5-.5 2.5-1 2.4-.6 2.5-.9 2.5-1 2.4-1.9 2.5-1.2 2.5-.7 2.5-.6 2.4-2.2 2.5-.3 2.5-1.8 2.4-1.3 2.5-4.2 2.5 1.4 2.5-1.4 2.4-1.7 2.5-.5 2.5-1.9 2.4-3.2 2.5 3.9 2.5.5 2.4-3 2.5-1.8 2.5.6 2.5 5.5 2.4-5.9 2.5 5.1 2.5-1.7 2.4-5.2 2.5-.1 2.5-.5 2.5.8 2.4-4 2.5.2 2.5-3.4 2.4 3.9 2.5 5 2.5 4.1 2.4-2 2.5-3.5 2.5-2.1 2.5-4.4 2.4-3.4 2.5 3.2 2.5-2.9 2.4-4.9 2.5-1.3 2.5.1 2.5-.9 2.4-.9 2.5 10.2 2.5-4.6 2.4-6 2.5-3.2 2.5 2 2.5-9 2.4-4.5 2.5-1 2.5-2.2 2.4-1.6 2.5-7.8 2.5-5.7 2.4-3.1 2.5-2.8 2.5-5.2 2.5-6.3 2.4-.3 2.5-4 2.5-6.2 2.4-6.6 2.5-5.8 2.5-6.5 2.5-4.5 2.4-7.9 2.5-10.1 2.5-13.4 2.4-7.2 2.5-8.6 2.5-10.2 2.4.8 2.5-.4 2.5-11.1 2.5-6.1 2.4-6.8 2.5-6.4 2.5 1.4 2.4 5.5 2.5 1.8 2.5-1.5 2.5-7.8 2.4-7.8 2.5-3.6 2.5-7.7 2.4-9.9 2.5-3.6 2.5-4.1 2.4-5.8 2.5 7.9 2.5-2.7 2.5-1.9 2.4-5.8 2.5-8.3 2.5-1.7 2.4 1.1 2.5-6.2 2.5-8.6 2.5-2.5 2.4-7.3 2.5-16.2 2.5-11.7 2.4-11.6 2.5-11.6 2.5-10.9 2.4-6.8 2.5 6.2 2.5-21.4 2.5-13.3 2.4-6.2 2.5-3.7 2.5-3.1 2.4.3 2.5.4 2.5-6.8 2.5-8.7 2.4-3 2.5 21.6 2.5-22.1"/><path fill="none" stroke="#C15065" stroke-linecap="butt" stroke-linejoin="round" stroke-width="1.5" d="M94.2 529.1h49.4l2.5-.1H193l2.5-.1h24.7l2.5-.1h19.8l2.4-.1h9.9l2.5-.1h14.8l2.5-.1h7.4l2.5-.1h4.9l2.5-.3 2.4.1h7.5l2.4-.1 2.5-.1h2.5l2.4-.1h2.5l2.5-.1 2.5-.1h2.4l2.5-.1 2.5-.1 2.4-.1 2.5-.1 2.5-.1 2.4-.1 2.5-.1 2.5-.1 2.5-.1 2.4-.1 2.5-.1 2.5-.4 2.4-.1 2.5-.2h2.5l2.5-.1 2.4-.2 2.5-.3 2.5-.2 2.4-.1 2.5-.3 2.5-.3 2.4-.3 2.5-.2 2.5-.4 2.5-.1 2.4-.4 2.5-.1 2.5-.4 2.4-.7 2.5-.5 2.5.5 2.5-.6 2.4-.1 2.5-.2 2.5-.1 2.4-.6 2.5-1.1 2.5-.4 2.4-.6 2.5-.7 2.5-.1 2.5-.1 2.4-.2 2.5-.6 2.5-1.3h2.4l2.5-1.3 2.5-.7 2.5-.2 2.4.2 2.5-.5 2.5-1 2.4-.6 2.5-.9 2.5-1 2.4-1.9 2.5-1.2 2.5-.7 2.5-.6 2.4-2.2 2.5-.3 2.5-1.8 2.4-1.3 2.5-4.2 2.5 1.4 2.5-1.4 2.4-1.7 2.5-.5 2.5-1.9 2.4-3.2 2.5 3.9 2.5.5 2.4-3 2.5-1.8 2.5.6 2.5 5.5 2.4-5.9 2.5 5.1 2.5-1.7 2.4-5.2 2.5-.1 2.5-.5 2.5.8 2.4-4 2.5.2 2.5-3.4 2.4 3.9 2.5 5 2.5 4.1 2.4-2 2.5-3.5 2.5-2.1 2.5-4.4 2.4-3.4 2.5 3.2 2.5-2.9 2.4-4.9 2.5-1.3 2.5.1 2.5-.9 2.4-.9 2.5 10.2 2.5-4.6 2.4-6 2.5-3.2 2.5 2 2.5-9 2.4-4.5 2.5-1 2.5-2.2 2.4-1.6 2.5-7.8 2.5-5.7 2.4-3.1 2.5-2.8 2.5-5.2 2.5-6.3 2.4-.3 2.5-4 2.5-6.2 2.4-6.6 2.5-5.8 2.5-6.5 2.5-4.5 2.4-7.9 2.5-10.1 2.5-13.4 2.4-7.2 2.5-8.6 2.5-10.2 2.4.8 2.5-.4 2.5-11.1 2.5-6.1 2.4-6.8 2.5-6.4 2.5 1.4 2.4 5.5 2.5 1.8 2.5-1.5 2.5-7.8 2.4-7.8 2.5-3.6 2.5-7.7 2.4-9.9 2.5-3.6 2.5-4.1 2.4-5.8 2.5 7.9 2.5-2.7 2.5-1.9 2.4-5.8 2.5-8.3 2.5-1.7 2.4 1.1 2.5-6.2 2.5-8.6 2.5-2.5 2.4-7.3 2.5-16.2 2.5-11.7 2.4-11.6 2.5-11.6 2.5-10.9 2.4-6.8 2.5 6.2 2.5-21.4 2.5-13.3 2.4-6.2 2.5-3.7 2.5-3.1 2.4.3 2.5.4 2.5-6.8 2.5-8.7 2.4-3 2.5 21.6 2.5-22.1"/><g><circle cx="94.2" cy="529.1" r="1.8" fill="#C15065"/><circle cx="96.7" cy="529.1" r="1.8" fill="#C15065"/><circle cx="99.2" cy="529.1" r="1.8" fill="#C15065"/><circle cx="101.6" cy="529.1" r="1.8" fill="#C15065"/><circle cx="104.1" cy="529.1" r="1.8" fill="#C15065"/><circle cx="106.6" cy="529.1" r="1.8" fill="#C15065"/><circle cx="109" cy="529.1" r="1.8" fill="#C15065"/><circle cx="111.5" cy="529.1" r="1.8" fill="#C15065"/><circle cx="114" cy="529.1" r="1.8" fill="#C15065"/><circle cx="116.5" cy="529.1" r="1.8" fill="#C15065"/><circle cx="118.9" cy="529.1" r="1.8" fill="#C15065"/><circle cx="121.4" cy="529.1" r="1.8" fill="#C15065"/><circle cx="123.9" cy="529.1" r="1.8" fill="#C15065"/><circle cx="126.3" cy="529.1" r="1.8" fill="#C15065"/><circle cx="128.8" cy="529.1" r="1.8" fill="#C15065"/><circle cx="131.3" cy="529.1" r="1.8" fill="#C15065"/><circle cx="133.8" cy="529.1" r="1.8" fill="#C15065"/><circle cx="136.2" cy="529.1" r="1.8" fill="#C15065"/><circle cx="138.7" cy="529.1" r="1.8" fill="#C15065"/><circle cx="141.2" cy="529.1" r="1.8" fill="#C15065"/><circle cx="143.6" cy="529.1" r="1.8" fill="#C15065"/><circle cx="146.1" cy="529" r="1.8" fill="#C15065"/><circle cx="148.6" cy="529" r="1.8" fill="#C15065"/><circle cx="151" cy="529" r="1.8" fill="#C15065"/><circle cx="153.5" cy="529" r="1.8" fill="#C15065"/><circle cx="156" cy="529" r="1.8" fill="#C15065"/><circle cx="158.5" cy="529" r="1.8" fill="#C15065"/><circle cx="160.9" cy="529" r="1.8" fill="#C15065"/><circle cx="163.4" cy="529" r="1.8" fill="#C15065"/><circle cx="165.9" cy="529" r="1.8" fill="#C15065"/><circle cx="168.3" cy="529" r="1.8" fill="#C15065"/><circle cx="170.8" cy="529" r="1.8" fill="#C15065"/><circle cx="173.3" cy="529" r="1.8" fill="#C15065"/><circle cx="175.8" cy="529" r="1.8" fill="#C15065"/><circle cx="178.2" cy="529" r="1.8" fill="#C15065"/><circle cx="180.7" cy="529" r="1.8" fill="#C15065"/><circle cx="183.2" cy="529" r="1.8" fill="#C15065"/><circle cx="185.6" cy="529" r="1.8" fill="#C15065"/><circle cx="188.1" cy="529" r="1.8" fill="#C15065"/><circle cx="190.6" cy="529" r="1.8" fill="#C15065"/><circle cx="193" cy="529" r="1.8" fill="#C15065"/><circle cx="195.5" cy="528.9" r="1.8" fill="#C15065"/><circle cx="198" cy="528.9" r="1.8" fill="#C15065"/><circle cx="200.5" cy="528.9" r="1.8" fill="#C15065"/><circle cx="202.9" cy="528.9" r="1.8" fill="#C15065"/><circle cx="205.4" cy="528.9" r="1.8" fill="#C15065"/><circle cx="207.9" cy="528.9" r="1.8" fill="#C15065"/><circle cx="210.3" cy="528.9" r="1.8" fill="#C15065"/><circle cx="212.8" cy="528.9" r="1.8" fill="#C15065"/><circle cx="215.3" cy="528.9" r="1.8" fill="#C15065"/><circle cx="217.8" cy="528.9" r="1.8" fill="#C15065"/><circle cx="220.2" cy="528.9" r="1.8" fill="#C15065"/><circle cx="222.7" cy="528.8" r="1.8" fill="#C15065"/><circle cx="225.2" cy="528.8" r="1.8" fill="#C15065"/><circle cx="227.6" cy="528.8" r="1.8" fill="#C15065"/><circle cx="230.1" cy="528.8" r="1.8" fill="#C15065"/><circle cx="232.6" cy="528.8" r="1.8" fill="#C15065"/><circle cx="235" cy="528.8" r="1.8" fill="#C15065"/><circle cx="237.5" cy="528.8" r="1.8" fill="#C15065"/><circle cx="240" cy="528.8" r="1.8" fill="#C15065"/><circle cx="242.5" cy="528.8" r="1.8" fill="#C15065"/><circle cx="244.9" cy="528.7" r="1.8" fill="#C15065"/><circle cx="247.4" cy="528.7" r="1.8" fill="#C15065"/><circle cx="249.9" cy="528.7" r="1.8" fill="#C15065"/><circle cx="252.3" cy="528.7" r="1.8" fill="#C15065"/><circle cx="254.8" cy="528.7" r="1.8" fill="#C15065"/><circle cx="257.3" cy="528.6" r="1.8" fill="#C15065"/><circle cx="259.8" cy="528.6" r="1.8" fill="#C15065"/><circle cx="262.2" cy="528.6" r="1.8" fill="#C15065"/><circle cx="264.7" cy="528.6" r="1.8" fill="#C15065"/><circle cx="267.2" cy="528.6" r="1.8" fill="#C15065"/><circle cx="269.6" cy="528.6" r="1.8" fill="#C15065"/><circle cx="272.1" cy="528.6" r="1.8" fill="#C15065"/><circle cx="274.6" cy="528.5" r="1.8" fill="#C15065"/><circle cx="277.1" cy="528.5" r="1.8" fill="#C15065"/><circle cx="279.5" cy="528.5" r="1.8" fill="#C15065"/><circle cx="282" cy="528.5" r="1.8" fill="#C15065"/><circle cx="284.5" cy="528.4" r="1.8" fill="#C15065"/><circle cx="286.9" cy="528.4" r="1.8" fill="#C15065"/><circle cx="289.4" cy="528.4" r="1.8" fill="#C15065"/><circle cx="291.9" cy="528.1" r="1.8" fill="#C15065"/><circle cx="294.3" cy="528.2" r="1.8" fill="#C15065"/><circle cx="296.8" cy="528.2" r="1.8" fill="#C15065"/><circle cx="299.3" cy="528.2" r="1.8" fill="#C15065"/><circle cx="301.8" cy="528.2" r="1.8" fill="#C15065"/><circle cx="304.2" cy="528.1" r="1.8" fill="#C15065"/><circle cx="306.7" cy="528" r="1.8" fill="#C15065"/><circle cx="309.2" cy="528" r="1.8" fill="#C15065"/><circle cx="311.6" cy="527.9" r="1.8" fill="#C15065"/><circle cx="314.1" cy="527.9" r="1.8" fill="#C15065"/><circle cx="316.6" cy="527.8" r="1.8" fill="#C15065"/><circle cx="319.1" cy="527.7" r="1.8" fill="#C15065"/><circle cx="321.5" cy="527.7" r="1.8" fill="#C15065"/><circle cx="324" cy="527.6" r="1.8" fill="#C15065"/><circle cx="326.5" cy="527.5" r="1.8" fill="#C15065"/><circle cx="328.9" cy="527.4" r="1.8" fill="#C15065"/><circle cx="331.4" cy="527.3" r="1.8" fill="#C15065"/><circle cx="333.9" cy="527.2" r="1.8" fill="#C15065"/><circle cx="336.3" cy="527.1" r="1.8" fill="#C15065"/><circle cx="338.8" cy="527" r="1.8" fill="#C15065"/><circle cx="341.3" cy="526.9" r="1.8" fill="#C15065"/><circle cx="343.8" cy="526.8" r="1.8" fill="#C15065"/><circle cx="346.2" cy="526.7" r="1.8" fill="#C15065"/><circle cx="348.7" cy="526.6" r="1.8" fill="#C15065"/><circle cx="351.2" cy="526.2" r="1.8" fill="#C15065"/><circle cx="353.6" cy="526.1" r="1.8" fill="#C15065"/><circle cx="356.1" cy="525.9" r="1.8" fill="#C15065"/><circle cx="358.6" cy="525.9" r="1.8" fill="#C15065"/><circle cx="361.1" cy="525.8" r="1.8" fill="#C15065"/><circle cx="363.5" cy="525.6" r="1.8" fill="#C15065"/><circle cx="366" cy="525.3" r="1.8" fill="#C15065"/><circle cx="368.5" cy="525.1" r="1.8" fill="#C15065"/><circle cx="370.9" cy="525" r="1.8" fill="#C15065"/><circle cx="373.4" cy="524.7" r="1.8" fill="#C15065"/><circle cx="375.9" cy="524.4" r="1.8" fill="#C15065"/><circle cx="378.3" cy="524.1" r="1.8" fill="#C15065"/><circle cx="380.8" cy="523.9" r="1.8" fill="#C15065"/><circle cx="383.3" cy="523.5" r="1.8" fill="#C15065"/><circle cx="385.8" cy="523.4" r="1.8" fill="#C15065"/><circle cx="388.2" cy="523" r="1.8" fill="#C15065"/><circle cx="390.7" cy="522.9" r="1.8" fill="#C15065"/><circle cx="393.2" cy="522.5" r="1.8" fill="#C15065"/><circle cx="395.6" cy="521.8" r="1.8" fill="#C15065"/><circle cx="398.1" cy="521.3" r="1.8" fill="#C15065"/><circle cx="400.6" cy="521.8" r="1.8" fill="#C15065"/><circle cx="403.1" cy="521.2" r="1.8" fill="#C15065"/><circle cx="405.5" cy="521.1" r="1.8" fill="#C15065"/><circle cx="408" cy="520.9" r="1.8" fill="#C15065"/><circle cx="410.5" cy="520.8" r="1.8" fill="#C15065"/><circle cx="412.9" cy="520.2" r="1.8" fill="#C15065"/><circle cx="415.4" cy="519.1" r="1.8" fill="#C15065"/><circle cx="417.9" cy="518.7" r="1.8" fill="#C15065"/><circle cx="420.3" cy="518.1" r="1.8" fill="#C15065"/><circle cx="422.8" cy="517.4" r="1.8" fill="#C15065"/><circle cx="425.3" cy="517.3" r="1.8" fill="#C15065"/><circle cx="427.8" cy="517.2" r="1.8" fill="#C15065"/><circle cx="430.2" cy="517" r="1.8" fill="#C15065"/><circle cx="432.7" cy="516.4" r="1.8" fill="#C15065"/><circle cx="435.2" cy="515.1" r="1.8" fill="#C15065"/><circle cx="437.6" cy="515.1" r="1.8" fill="#C15065"/><circle cx="440.1" cy="513.8" r="1.8" fill="#C15065"/><circle cx="442.6" cy="513.1" r="1.8" fill="#C15065"/><circle cx="445.1" cy="512.9" r="1.8" fill="#C15065"/><circle cx="447.5" cy="513.1" r="1.8" fill="#C15065"/><circle cx="450" cy="512.6" r="1.8" fill="#C15065"/><circle cx="452.5" cy="511.6" r="1.8" fill="#C15065"/><circle cx="454.9" cy="511" r="1.8" fill="#C15065"/><circle cx="457.4" cy="510.1" r="1.8" fill="#C15065"/><circle cx="459.9" cy="509.1" r="1.8" fill="#C15065"/><circle cx="462.3" cy="507.2" r="1.8" fill="#C15065"/><circle cx="464.8" cy="506" r="1.8" fill="#C15065"/><circle cx="467.3" cy="505.3" r="1.8" fill="#C15065"/><circle cx="469.8" cy="504.7" r="1.8" fill="#C15065"/><circle cx="472.2" cy="502.5" r="1.8" fill="#C15065"/><circle cx="474.7" cy="502.2" r="1.8" fill="#C15065"/><circle cx="477.2" cy="500.4" r="1.8" fill="#C15065"/><circle cx="479.6" cy="499.1" r="1.8" fill="#C15065"/><circle cx="482.1" cy="494.9" r="1.8" fill="#C15065"/><circle cx="484.6" cy="496.3" r="1.8" fill="#C15065"/><circle cx="487.1" cy="494.9" r="1.8" fill="#C15065"/><circle cx="489.5" cy="493.2" r="1.8" fill="#C15065"/><circle cx="492" cy="492.7" r="1.8" fill="#C15065"/><circle cx="494.5" cy="490.8" r="1.8" fill="#C15065"/><circle cx="496.9" cy="487.6" r="1.8" fill="#C15065"/><circle cx="499.4" cy="491.5" r="1.8" fill="#C15065"/><circle cx="501.9" cy="492" r="1.8" fill="#C15065"/><circle cx="504.3" cy="489" r="1.8" fill="#C15065"/><circle cx="506.8" cy="487.2" r="1.8" fill="#C15065"/><circle cx="509.3" cy="487.8" r="1.8" fill="#C15065"/><circle cx="511.8" cy="493.3" r="1.8" fill="#C15065"/><circle cx="514.2" cy="487.4" r="1.8" fill="#C15065"/><circle cx="516.7" cy="492.5" r="1.8" fill="#C15065"/><circle cx="519.2" cy="490.8" r="1.8" fill="#C15065"/><circle cx="521.6" cy="485.6" r="1.8" fill="#C15065"/><circle cx="524.1" cy="485.5" r="1.8" fill="#C15065"/><circle cx="526.6" cy="485" r="1.8" fill="#C15065"/><circle cx="529.1" cy="485.8" r="1.8" fill="#C15065"/><circle cx="531.5" cy="481.8" r="1.8" fill="#C15065"/><circle cx="534" cy="482" r="1.8" fill="#C15065"/><circle cx="536.5" cy="478.6" r="1.8" fill="#C15065"/><circle cx="538.9" cy="482.5" r="1.8" fill="#C15065"/><circle cx="541.4" cy="487.5" r="1.8" fill="#C15065"/><circle cx="543.9" cy="491.6" r="1.8" fill="#C15065"/><circle cx="546.3" cy="489.6" r="1.8" fill="#C15065"/><circle cx="548.8" cy="486.1" r="1.8" fill="#C15065"/><circle cx="551.3" cy="484" r="1.8" fill="#C15065"/><circle cx="553.8" cy="479.6" r="1.8" fill="#C15065"/><circle cx="556.2" cy="476.2" r="1.8" fill="#C15065"/><circle cx="558.7" cy="479.4" r="1.8" fill="#C15065"/><circle cx="561.2" cy="476.5" r="1.8" fill="#C15065"/><circle cx="563.6" cy="471.6" r="1.8" fill="#C15065"/><circle cx="566.1" cy="470.3" r="1.8" fill="#C15065"/><circle cx="568.6" cy="470.4" r="1.8" fill="#C15065"/><circle cx="571.1" cy="469.5" r="1.8" fill="#C15065"/><circle cx="573.5" cy="468.6" r="1.8" fill="#C15065"/><circle cx="576" cy="478.8" r="1.8" fill="#C15065"/><circle cx="578.5" cy="474.2" r="1.8" fill="#C15065"/><circle cx="580.9" cy="468.2" r="1.8" fill="#C15065"/><circle cx="583.4" cy="465" r="1.8" fill="#C15065"/><circle cx="585.9" cy="467" r="1.8" fill="#C15065"/><circle cx="588.4" cy="458" r="1.8" fill="#C15065"/><circle cx="590.8" cy="453.5" r="1.8" fill="#C15065"/><circle cx="593.3" cy="452.5" r="1.8" fill="#C15065"/><circle cx="595.8" cy="450.3" r="1.8" fill="#C15065"/><circle cx="598.2" cy="448.7" r="1.8" fill="#C15065"/><circle cx="600.7" cy="440.9" r="1.8" fill="#C15065"/><circle cx="603.2" cy="435.2" r="1.8" fill="#C15065"/><circle cx="605.6" cy="432.1" r="1.8" fill="#C15065"/><circle cx="608.1" cy="429.3" r="1.8" fill="#C15065"/><circle cx="610.6" cy="424.1" r="1.8" fill="#C15065"/><circle cx="613.1" cy="417.8" r="1.8" fill="#C15065"/><circle cx="615.5" cy="417.5" r="1.8" fill="#C15065"/><circle cx="618" cy="413.5" r="1.8" fill="#C15065"/><circle cx="620.5" cy="407.3" r="1.8" fill="#C15065"/><circle cx="622.9" cy="400.7" r="1.8" fill="#C15065"/><circle cx="625.4" cy="394.9" r="1.8" fill="#C15065"/><circle cx="627.9" cy="388.4" r="1.8" fill="#C15065"/><circle cx="630.4" cy="383.9" r="1.8" fill="#C15065"/><circle cx="632.8" cy="376" r="1.8" fill="#C15065"/><circle cx="635.3" cy="365.9" r="1.8" fill="#C15065"/><circle cx="637.8" cy="352.5" r="1.8" fill="#C15065"/><circle cx="640.2" cy="345.3" r="1.8" fill="#C15065"/><circle cx="642.7" cy="336.7" r="1.8" fill="#C15065"/><circle cx="645.2" cy="326.5" r="1.8" fill="#C15065"/><circle cx="647.6" cy="327.3" r="1.8" fill="#C15065"/><circle cx="650.1" cy="326.9" r="1.8" fill="#C15065"/><circle cx="652.6" cy="315.8" r="1.8" fill="#C15065"/><circle cx="655.1" cy="309.7" r="1.8" fill="#C15065"/><circle cx="657.5" cy="302.9" r="1.8" fill="#C15065"/><circle cx="660" cy="296.5" r="1.8" fill="#C15065"/><circle cx="662.5" cy="297.9" r="1.8" fill="#C15065"/><circle cx="664.9" cy="303.4" r="1.8" fill="#C15065"/><circle cx="667.4" cy="305.2" r="1.8" fill="#C15065"/><circle cx="669.9" cy="303.7" r="1.8" fill="#C15065"/><circle cx="672.4" cy="295.9" r="1.8" fill="#C15065"/><circle cx="674.8" cy="288.1" r="1.8" fill="#C15065"/><circle cx="677.3" cy="284.5" r="1.8" fill="#C15065"/><circle cx="679.8" cy="276.8" r="1.8" fill="#C15065"/><circle cx="682.2" cy="266.9" r="1.8" fill="#C15065"/><circle cx="684.7" cy="263.3" r="1.8" fill="#C15065"/><circle cx="687.2" cy="259.2" r="1.8" fill="#C15065"/><circle cx="689.6" cy="253.4" r="1.8" fill="#C15065"/><circle cx="692.1" cy="261.3" r="1.8" fill="#C15065"/><circle cx="694.6" cy="258.6" r="1.8" fill="#C15065"/><circle cx="697.1" cy="256.7" r="1.8" fill="#C15065"/><circle cx="699.5" cy="250.9" r="1.8" fill="#C15065"/><circle cx="702" cy="242.6" r="1.8" fill="#C15065"/><circle cx="704.5" cy="240.9" r="1.8" fill="#C15065"/><circle cx="706.9" cy="242" r="1.8" fill="#C15065"/><circle cx="709.4" cy="235.8" r="1.8" fill="#C15065"/><circle cx="711.9" cy="227.2" r="1.8" fill="#C15065"/><circle cx="714.4" cy="224.7" r="1.8" fill="#C15065"/><circle cx="716.8" cy="217.4" r="1.8" fill="#C15065"/><circle cx="719.3" cy="201.2" r="1.8" fill="#C15065"/><circle cx="721.8" cy="189.5" r="1.8" fill="#C15065"/><circle cx="724.2" cy="177.9" r="1.8" fill="#C15065"/><circle cx="726.7" cy="166.3" r="1.8" fill="#C15065"/><circle cx="729.2" cy="155.4" r="1.8" fill="#C15065"/><circle cx="731.6" cy="148.6" r="1.8" fill="#C15065"/><circle cx="734.1" cy="154.8" r="1.8" fill="#C15065"/><circle cx="736.6" cy="133.4" r="1.8" fill="#C15065"/><circle cx="739.1" cy="120.1" r="1.8" fill="#C15065"/><circle cx="741.5" cy="113.9" r="1.8" fill="#C15065"/><circle cx="744" cy="110.2" r="1.8" fill="#C15065"/><circle cx="746.5" cy="107.1" r="1.8" fill="#C15065"/><circle cx="748.9" cy="107.4" r="1.8" fill="#C15065"/><circle cx="751.4" cy="107.8" r="1.8" fill="#C15065"/><circle cx="753.9" cy="101" r="1.8" fill="#C15065"/><circle cx="756.4" cy="92.3" r="1.8" fill="#C15065"/><circle cx="758.8" cy="89.3" r="1.8" fill="#C15065"/><circle cx="761.3" cy="110.9" r="1.8" fill="#C15065"/><circle cx="763.8" cy="88.8" r="1.8" fill="#C15065"/></g></g></g></g></g><g class="SourcesFooter" style="fill:#5b5b5b"><text x="16" y="581" style="font-size:13px;line-height:1.2"><tspan x="16" y="581"><tspan style="font-weight:700">Data source:</tspan> Global Carbon Budget (2022)</tspan></text><text x="455.3" y="581" font-size="13"><tspan x="455.31" y="581.01"><a href="https://ourworldindata.org/co2-and-greenhouse-gas-emissions" style="fill:#5b5b5b;text-decoration:underline" target="_blank">OurWorldInData.org/co2-and-greenhouse-gas-emissions</a> | <a href="https://creativecommons.org/licenses/by/4.0/" style="fill:#5b5b5b;text-decoration:underline" target="_blank">CC BY</a></tspan></text></g></svg>