<svg xmlns="http://www.w3.org/2000/svg" width="850" height="600" style="font-family:Lato,&quot;Helvetica Neue&quot;,Helvetica,Arial,&quot;Liberation Sans&quot;,sans-serif;font-size:18px;background-color:#fff;text-rendering:geometricPrecision;-webkit-font-smoothing:antialiased" version="1.1" viewBox="0 0 850 600"><defs><style>@import url(/fonts.css);</style></defs><defs><pattern id="noDataPattern" width="4" height="4" patternTransform="rotate(-45 2 2)" patternUnits="userSpaceOnUse"><path stroke="#ccc" stroke-width=".7" d="M-1 2h6"/></pattern></defs><path fill="#fff" d="M0 0h850v600H0z" class="background-fill"/><g class="HeaderView"><g transform="translate(769 16)"><svg xmlns="http://www.w3.org/2000/svg" width="65" height="36" fill="none" className="owidLogo" viewBox="0 0 65 36"><path fill="#002147" d="M0 0h64.8v36H0z"/><path fill="#CE261E" d="M0 33.3h64.8V36H0z"/><path fill="#fff" d="M13.8 10.57c0 .64-.11 1.23-.32 1.77a4.2 4.2 0 0 1-.9 1.4 4.08 4.08 0 0 1-1.38.94c-.54.22-1.14.33-1.8.33-.65 0-1.25-.11-1.8-.33a4.15 4.15 0 0 1-1.39-.93 4.2 4.2 0 0 1-.9-1.4A4.83 4.83 0 0 1 5 10.56c0-.63.1-1.22.32-1.76a4.18 4.18 0 0 1 .9-1.4 4.08 4.08 0 0 1 1.38-.93 4.68 4.68 0 0 1 1.8-.34c.66 0 1.26.11 1.8.34a4.08 4.08 0 0 1 2.28 2.33c.21.54.32 1.13.32 1.76Zm-1.66 0c0-.47-.06-.9-.2-1.27a2.67 2.67 0 0 0-.53-.97 2.33 2.33 0 0 0-.87-.6A2.94 2.94 0 0 0 9.4 7.5c-.42 0-.8.07-1.14.21-.34.14-.63.35-.87.61a2.74 2.74 0 0 0-.55.97 3.96 3.96 0 0 0-.19 1.27c0 .48.06.9.2 1.29a2.42 2.42 0 0 0 1.42 1.56c.33.14.71.2 1.13.2.43 0 .8-.06 1.14-.2a2.37 2.37 0 0 0 1.4-1.56 4.01 4.01 0 0 0 .2-1.29Zm3.96-1.81v3.9c0 .39.09.68.26.89.18.2.44.3.79.3.25 0 .5-.06.72-.17a2.58 2.58 0 0 0 .63-.47V8.76H20v6.15h-.91c-.2 0-.32-.09-.38-.27l-.1-.49a4.65 4.65 0 0 1-.4.35 2.58 2.58 0 0 1-.43.27 2.35 2.35 0 0 1-.5.17 2.35 2.35 0 0 1-.57.07c-.34 0-.64-.06-.9-.17a1.82 1.82 0 0 1-.64-.49 2.16 2.16 0 0 1-.4-.73 3.23 3.23 0 0 1-.14-.95V8.76h1.48Zm5.23 6.15V8.76h.87c.15 0 .26.02.32.08s.1.15.12.29l.09.74c.22-.38.47-.68.77-.9.3-.22.63-.33 1-.33.3 0 .55.07.75.21l-.19 1.11c-.01.07-.04.13-.08.16a.28.28 0 0 1-.16.04 1.01 1.01 0 0 1-.25-.04 1.65 1.65 0 0 0-.41-.04c-.3 0-.57.08-.8.25-.21.17-.4.42-.55.75v3.83h-1.48Zm6.02-8.67h1.35a.57.57 0 0 1 .35.1c.1.06.16.15.2.26l1.47 5.2a10.12 10.12 0 0 1 .19.9 5.97 5.97 0 0 1 .22-.9l1.7-5.2a.57.57 0 0 1 .2-.25.54.54 0 0 1 .34-.11h.48a.57.57 0 0 1 .34.1.5.5 0 0 1 .2.26l1.69 5.2c.08.25.16.53.22.85a31.71 31.71 0 0 1 .19-.86l1.47-5.19c.03-.1.1-.18.19-.25a.56.56 0 0 1 .34-.11h1.27l-2.7 8.67h-1.45L33.7 9l-.08-.25a9.5 9.5 0 0 1-.07-.28 4.04 4.04 0 0 1-.15.53L31.5 14.9h-1.46l-2.7-8.67Zm15.42 2.42c.46 0 .88.07 1.25.22s.7.36.96.63.47.6.61 1 .22.83.22 1.31c0 .5-.08.93-.22 1.32a2.85 2.85 0 0 1-.61 1 2.65 2.65 0 0 1-.96.64 3.35 3.35 0 0 1-1.25.22 3.4 3.4 0 0 1-1.25-.22 2.71 2.71 0 0 1-.97-.63 2.92 2.92 0 0 1-.62-1 3.8 3.8 0 0 1-.21-1.33c0-.48.07-.92.21-1.31a2.75 2.75 0 0 1 1.58-1.63 3.4 3.4 0 0 1 1.26-.22Zm0 5.2c.51 0 .9-.17 1.13-.51.25-.35.38-.85.38-1.52s-.13-1.17-.38-1.51c-.24-.35-.62-.53-1.13-.53-.52 0-.9.18-1.15.53-.25.35-.37.85-.37 1.51s.12 1.17.37 1.52c.25.34.63.51 1.15.51Zm3.95 1.05V8.76h.87c.15 0 .26.02.32.08s.1.15.12.29l.1.74c.21-.38.47-.68.76-.9.3-.22.63-.33 1-.33.3 0 .56.07.76.21l-.2 1.11c0 .07-.03.13-.07.16a.28.28 0 0 1-.17.04 1.01 1.01 0 0 1-.24-.04 1.65 1.65 0 0 0-.42-.04c-.3 0-.57.08-.79.25-.22.17-.4.42-.56.75v3.83h-1.48ZM52.96 6v8.91h-1.48V6h1.48Zm5.77 8.91c-.19 0-.32-.09-.38-.27l-.12-.6a3.68 3.68 0 0 1-.4.4 2.5 2.5 0 0 1-.98.5 2.37 2.37 0 0 1-.6.06c-.33 0-.64-.07-.92-.2a2.1 2.1 0 0 1-.73-.61 3.03 3.03 0 0 1-.46-1 5.07 5.07 0 0 1-.17-1.34c0-.45.07-.88.19-1.27s.3-.73.53-1.02c.24-.29.51-.51.84-.67a2.38 2.38 0 0 1 1.09-.25 2.1 2.1 0 0 1 1.54.6V6h1.48v8.91h-.9Zm-1.97-1.08c.3 0 .57-.07.78-.2.22-.12.42-.3.62-.54v-2.76a1.45 1.45 0 0 0-.56-.43 1.6 1.6 0 0 0-.63-.13c-.23 0-.43.04-.61.13a1.21 1.21 0 0 0-.47.38c-.12.17-.22.39-.28.65a4.3 4.3 0 0 0-.02 1.84c.06.25.14.45.25.61.1.16.24.27.4.34.15.07.33.1.52.1Zm-40.43 6.93v6.15h-1.48v-6.15h1.48Zm.22-1.8a.84.84 0 0 1-.07.36.96.96 0 0 1-.21.3 1 1 0 0 1-.3.2.96.96 0 0 1-.38.07.95.95 0 0 1-.36-.07 1.02 1.02 0 0 1-.5-.5.96.96 0 0 1 0-.73 1 1 0 0 1 .2-.3.93.93 0 0 1 .3-.2.9.9 0 0 1 .73 0 .91.91 0 0 1 .3.2.94.94 0 0 1 .3.67Zm1.22 7.95v-6.15h.9c.2 0 .32.09.38.27l.1.48a2.93 2.93 0 0 1 .84-.61 2.3 2.3 0 0 1 1.07-.24c.34 0 .63.06.9.18.25.1.47.27.64.48.18.2.3.45.4.73.09.29.13.6.13.95v3.91h-1.48V23c0-.38-.08-.67-.26-.87-.17-.21-.43-.32-.78-.32-.26 0-.5.06-.72.18a2.58 2.58 0 0 0-.64.47v4.45h-1.48Zm16.45-4.34c0 .64-.1 1.22-.32 1.76-.21.53-.5.99-.9 1.37a4 4 0 0 1-1.38.9 4.87 4.87 0 0 1-1.8.31h-3.3v-8.67h3.3a4.79 4.79 0 0 1 1.8.32 4 4 0 0 1 1.39.9c.38.37.68.83.9 1.36.2.53.31 1.12.31 1.75Zm-1.65 0c0-.47-.06-.9-.2-1.27a2.68 2.68 0 0 0-.54-.96 2.33 2.33 0 0 0-.86-.6 2.94 2.94 0 0 0-1.14-.22h-1.69v6.1h1.69c.42 0 .8-.06 1.14-.2.34-.14.63-.34.86-.6a2.75 2.75 0 0 0 .55-.96 4.01 4.01 0 0 0 .19-1.29Zm7.41 4.34h-.67a.75.75 0 0 1-.33-.06c-.07-.04-.13-.13-.17-.25l-.14-.44c-.15.14-.3.26-.46.37a2.8 2.8 0 0 1-.46.26c-.16.08-.33.13-.51.17a3.07 3.07 0 0 1-1.32-.05 1.62 1.62 0 0 1-.57-.32 1.45 1.45 0 0 1-.37-.52 1.85 1.85 0 0 1-.13-.73c0-.23.06-.46.18-.68.12-.23.33-.44.61-.62.29-.18.67-.33 1.14-.45a8.01 8.01 0 0 1 1.75-.2v-.36c0-.42-.08-.72-.26-.92-.17-.2-.42-.3-.76-.3a1.84 1.84 0 0 0-1.01.28l-.33.19a.66.66 0 0 1-.33.08.43.43 0 0 1-.26-.08.61.61 0 0 1-.17-.2l-.27-.46c.7-.65 1.56-.98 2.56-.98.36 0 .68.06.96.18a1.99 1.99 0 0 1 1.16 1.25c.1.29.16.6.16.96v3.88ZM37.1 26c.15 0 .3-.01.42-.04a1.81 1.81 0 0 0 .69-.33c.1-.09.22-.19.32-.3v-1.04c-.43.02-.79.06-1.08.12a2.8 2.8 0 0 0-.7.2.92.92 0 0 0-.37.3.66.66 0 0 0-.11.36c0 .26.07.45.22.56.16.11.36.17.61.17ZM43.22 27c-.53 0-.94-.15-1.23-.45-.29-.3-.43-.72-.43-1.25v-3.44h-.63a.31.31 0 0 1-.2-.08c-.06-.05-.09-.13-.09-.23v-.6l.99-.15.31-1.68a.3.3 0 0 1 .11-.2.36.36 0 0 1 .22-.06h.77v1.94h1.62v1.06h-1.62v3.33c0 .2.05.35.14.45a.49.49 0 0 0 .39.17.73.73 0 0 0 .39-.1l.12-.07a.2.2 0 0 1 .11-.04.16.16 0 0 1 .11.04c.03.02.06.05.09.1l.44.71c-.21.18-.46.32-.74.41a2.77 2.77 0 0 1-.87.14Zm7.2-.1h-.66a.75.75 0 0 1-.33-.06c-.08-.04-.14-.13-.18-.25l-.13-.44c-.16.14-.31.26-.47.37a2.8 2.8 0 0 1-.46.26c-.16.08-.33.13-.5.17a3.07 3.07 0 0 1-1.33-.05 1.62 1.62 0 0 1-.57-.32 1.45 1.45 0 0 1-.36-.52 1.85 1.85 0 0 1-.14-.73c0-.23.06-.46.18-.68.13-.23.33-.44.62-.62.28-.18.66-.33 1.13-.45a8.01 8.01 0 0 1 1.76-.2v-.36c0-.42-.1-.72-.27-.92-.17-.2-.42-.3-.75-.3a1.84 1.84 0 0 0-1.02.28l-.33.19a.66.66 0 0 1-.33.08.43.43 0 0 1-.25-.08.61.61 0 0 1-.18-.2l-.27-.46c.7-.65 1.56-.98 2.56-.98.36 0 .68.06.96.18a1.99 1.99 0 0 1 1.17 1.25c.1.29.15.6.15.96v3.88ZM47.54 26c.16 0 .3-.01.42-.04a1.88 1.88 0 0 0 .69-.33l.33-.3v-1.04c-.44.02-.8.06-1.09.12a2.8 2.8 0 0 0-.7.2.92.92 0 0 0-.37.3.66.66 0 0 0-.11.36c0 .26.08.45.23.56.15.11.36.17.6.17Z"/></svg></g><a href="/grapher/co2-emissions-and-gdp" rel="noopener" style="font-family:&quot;Playfair Display&quot;,Georgia,&quot;Times New Roman&quot;,&quot;Liberation Serif&quot;,serif" target="_blank"><text x="16" y="39.3" fill="#5b5b5b" font-size="24" font-weight="500"><tspan x="16" y="39.28">Change in CO₂ emissions and GDP</tspan></text></a><text x="16" y="63" fill="#5b5b5b" style="font-size:14px;line-height:1.28571"><tspan x="16" y="63"><tspan>Consumption-based emissions</tspan> are national emissions that have been adjusted for trade. This measures <tspan>fossil fuel and</tspan></tspan><tspan x="16" y="81"><tspan>industry emissions</tspan>. Land use change is not included.</tspan></text></g><g><g class="categoricalColorLegend"><g><path fill="#00847e" stroke-width=".4" d="M143.86 100.8h13.5v13.5h-13.5z"/>,<text x="162.36" y="107.55" dy=".32em" font-size="14.4">GDP</text></g><g><path fill="#4c6a9c" stroke-width=".4" d="M205.61 100.8h13.5v13.5h-13.5z"/>,<text x="224.11" y="107.55" dy=".32em" font-size="14.4">Production-based CO₂ emissions</text></g><g><path fill="#be243a" stroke-width=".4" d="M450.38 100.8h13.5v13.5h-13.5z"/>,<text x="468.88" y="107.55" dy=".32em" font-size="14.4">Consumption-based CO₂ emissions</text></g></g></g><text x="62.46" y="143.21" fill="#1d3d63" font-size="14.63" style="font-weight:700">Sweden</text><g class="LineChart"><defs><clipPath id="boundsClip-85"><path d="M52.46 146.37h313.46v174H52.46z"/></clipPath></defs><path fill="none" d="M16 156.37h293.46v154H16z"/><g class="DualAxisView"><g class="HorizontalAxis"><path stroke="#999" d="M62.5 290.21v5M308.5 290.21v5M141.8 290.21v5M181.5 290.21v5M221.2 290.21v5"/><text x="62.46" y="308.37" fill="#666" font-size="13.16" text-anchor="start">1990</text><text x="308.46" y="308.37" fill="#666" font-size="13.16" text-anchor="end">2021</text><text x="141.8" y="308.37" fill="#666" font-size="13.16" text-anchor="middle">2000</text><text x="181.5" y="308.37" fill="#666" font-size="13.16" text-anchor="middle">2005</text><text x="221.2" y="308.37" fill="#666" font-size="13.16" text-anchor="middle">2010</text></g><g class="VerticalAxis"><text x="57.46" y="285.4" fill="#666" dy=".32em" font-size="13.16" text-anchor="end">-40%</text><text x="57.46" y="252.5" fill="#666" dy=".32em" font-size="13.16" text-anchor="end">+0%</text><text x="57.46" y="219.5" fill="#666" dy=".32em" font-size="13.16" text-anchor="end">+40%</text><text x="57.46" y="186.5" fill="#666" dy=".32em" font-size="13.16" text-anchor="end">+80%</text></g><g class="AxisGridLines horizontalLines"><path stroke="#ddd" stroke-dasharray="2,1" d="M62.46 285.4h246M62.46 268.9h246"/><path stroke="#999" d="M62.46 252.5h246"/><path stroke="#ddd" stroke-dasharray="2,1" d="M62.46 236h246M62.46 219.5h246M62.46 203h246M62.46 186.5h246M62.46 170h246"/></g></g><g clip-path="url(#boundsClip-85)"><g class="Lines"><g><path fill="none" stroke="#ddd" stroke-linecap="round" stroke-linejoin="round" stroke-width="1" d="m62.5 252.5 7.9.7 7.9-8.5 8 6.3 7.9.7 7.9 1 8-5.3 7.9 4.7 7.9-1.7 8 5.4 7.9-3.5 8 5.7 7.9-2.1 7.9-5.7 8 .3 7.9-3.7 7.9-1.2 8 .7 7.9 1.7 7.9 12.3 8-8.5 7.9 1.8 7.9 6.5 8 3.3 7.9.9 7.9 1.6 8 .3 7.9-1.2 8-.2 7.9 3.8 7.9 7"/></g><g><path fill="none" stroke="#ddd" stroke-linecap="round" stroke-linejoin="round" stroke-width="1" d="m62.5 252.5 7.9-.6 7.9.4 8-.1 7.9-3.5 7.9.9 8-5.7 7.9 7.3 7.9-.6 8 4.1 7.9 1.6 8-1.3 7.9-1.4 7.9-.9 8 1 7.9 3.8 7.9.2 8 1.1 7.9 3 7.9 5.2 8-8.4 7.9 5.6 7.9 3.5 8 2.3 7.9 2.6 7.9-.3 8 .4 7.9 1.1 8 .8 7.9 1.6 7.9 6.4 8 1"/></g><g><path fill="none" stroke="#ddd" stroke-linecap="round" stroke-linejoin="round" stroke-width="1" d="m62.5 252.5 7.9.9 7.9.9 8 1.7 7.9-3.1 7.9-3.2 8-1.4 7.9-2.6 7.9-3.9 8-3.9 7.9-4.7 8-1.4 7.9-2.3 7.9-2.4 8-4.7 7.9-3.2 7.9-5.4 8-4.2 7.9.6 7.9 5.4 8-7.1 7.9-4 7.9.7 8-1.5 7.9-3.5 7.9-6.1 8-2.9 7.9-3.7 8-2.8 7.9-3 7.9 3.3 8-7.6"/></g><g><path fill="none" stroke="#fff" stroke-linecap="butt" stroke-linejoin="round" stroke-width="2.5" d="m62.5 252.5 7.9.7 7.9-8.5 8 6.3 7.9.7 7.9 1 8-5.3 7.9 4.7 7.9-1.7 8 5.4 7.9-3.5 8 5.7 7.9-2.1 7.9-5.7 8 .3 7.9-3.7 7.9-1.2 8 .7 7.9 1.7 7.9 12.3 8-8.5 7.9 1.8 7.9 6.5 8 3.3 7.9.9 7.9 1.6 8 .3 7.9-1.2 8-.2 7.9 3.8 7.9 7"/><path fill="none" stroke="#be243a" stroke-linecap="butt" stroke-linejoin="round" stroke-width="1.5" d="m62.5 252.5 7.9.7 7.9-8.5 8 6.3 7.9.7 7.9 1 8-5.3 7.9 4.7 7.9-1.7 8 5.4 7.9-3.5 8 5.7 7.9-2.1 7.9-5.7 8 .3 7.9-3.7 7.9-1.2 8 .7 7.9 1.7 7.9 12.3 8-8.5 7.9 1.8 7.9 6.5 8 3.3 7.9.9 7.9 1.6 8 .3 7.9-1.2 8-.2 7.9 3.8 7.9 7"/></g><g><path fill="none" stroke="#fff" stroke-linecap="butt" stroke-linejoin="round" stroke-width="2.5" d="m62.5 252.5 7.9-.6 7.9.4 8-.1 7.9-3.5 7.9.9 8-5.7 7.9 7.3 7.9-.6 8 4.1 7.9 1.6 8-1.3 7.9-1.4 7.9-.9 8 1 7.9 3.8 7.9.2 8 1.1 7.9 3 7.9 5.2 8-8.4 7.9 5.6 7.9 3.5 8 2.3 7.9 2.6 7.9-.3 8 .4 7.9 1.1 8 .8 7.9 1.6 7.9 6.4 8 1"/><path fill="none" stroke="#4c6a9c" stroke-linecap="butt" stroke-linejoin="round" stroke-width="1.5" d="m62.5 252.5 7.9-.6 7.9.4 8-.1 7.9-3.5 7.9.9 8-5.7 7.9 7.3 7.9-.6 8 4.1 7.9 1.6 8-1.3 7.9-1.4 7.9-.9 8 1 7.9 3.8 7.9.2 8 1.1 7.9 3 7.9 5.2 8-8.4 7.9 5.6 7.9 3.5 8 2.3 7.9 2.6 7.9-.3 8 .4 7.9 1.1 8 .8 7.9 1.6 7.9 6.4 8 1"/></g><g><path fill="none" stroke="#fff" stroke-linecap="butt" stroke-linejoin="round" stroke-width="2.5" d="m62.5 252.5 7.9.9 7.9.9 8 1.7 7.9-3.1 7.9-3.2 8-1.4 7.9-2.6 7.9-3.9 8-3.9 7.9-4.7 8-1.4 7.9-2.3 7.9-2.4 8-4.7 7.9-3.2 7.9-5.4 8-4.2 7.9.6 7.9 5.4 8-7.1 7.9-4 7.9.7 8-1.5 7.9-3.5 7.9-6.1 8-2.9 7.9-3.7 8-2.8 7.9-3 7.9 3.3 8-7.6"/><path fill="none" stroke="#00847e" stroke-linecap="butt" stroke-linejoin="round" stroke-width="1.5" d="m62.5 252.5 7.9.9 7.9.9 8 1.7 7.9-3.1 7.9-3.2 8-1.4 7.9-2.6 7.9-3.9 8-3.9 7.9-4.7 8-1.4 7.9-2.3 7.9-2.4 8-4.7 7.9-3.2 7.9-5.4 8-4.2 7.9.6 7.9 5.4 8-7.1 7.9-4 7.9.7 8-1.5 7.9-3.5 7.9-6.1 8-2.9 7.9-3.7 8-2.8 7.9-3 7.9 3.3 8-7.6"/></g></g></g></g><text x="324.46" y="143.21" fill="#1d3d63" font-size="14.63" style="font-weight:700">United Kingdom</text><g class="LineChart"><defs><clipPath id="boundsClip-86"><path d="M314.46 146.37h267v174h-267z"/></clipPath></defs><path fill="none" d="M324.46 156.37h247v154h-247z"/><g class="DualAxisView"><g class="HorizontalAxis"><path stroke="#999" d="M324.5 290.21v5M570.5 290.21v5M403.8 290.21v5M443.5 290.21v5M483.2 290.21v5"/><text x="324.46" y="308.37" fill="#666" font-size="13.16" text-anchor="start">1990</text><text x="570.46" y="308.37" fill="#666" font-size="13.16" text-anchor="end">2021</text><text x="403.8" y="308.37" fill="#666" font-size="13.16" text-anchor="middle">2000</text><text x="443.5" y="308.37" fill="#666" font-size="13.16" text-anchor="middle">2005</text><text x="483.2" y="308.37" fill="#666" font-size="13.16" text-anchor="middle">2010</text></g><g class="AxisGridLines horizontalLines"><path stroke="#ddd" stroke-dasharray="2,1" d="M324.46 285.4h246M324.46 268.9h246"/><path stroke="#999" d="M324.46 252.5h246"/><path stroke="#ddd" stroke-dasharray="2,1" d="M324.46 236h246M324.46 219.5h246M324.46 203h246M324.46 186.5h246M324.46 170h246"/></g></g><g clip-path="url(#boundsClip-86)"><g class="Lines"><g><path fill="none" stroke="#ddd" stroke-linecap="round" stroke-linejoin="round" stroke-width="1" d="m324.5 252.5 7.9-.9 7.9-2.1 8 4.4 7.9.9 7.9.6 8-3.6 7.9.2 7.9-3 8 1.8 7.9-7.9 8 2.3 7.9-1.1 7.9-1.6 8-1.5 7.9 1.3 7.9-.5 8 .2 7.9 3.9 7.9 11.3 8-6.1 7.9 8.1 7.9-3 8 2.3 7.9 2.7 7.9.9 8 1.9 7.9 3.4 8 1.5 7.9 2.7 7.9 6"/></g><g><path fill="none" stroke="#ddd" stroke-linecap="round" stroke-linejoin="round" stroke-width="1" d="m324.5 252.5 7.9-1.1 7.9 2.2 8 1.9 7.9.8 7.9 1.1 8-2.9 7.9 3.3 7.9-.8 8 1 7.9-1 8-1.3 7.9 2.5 7.9-1.6 8-.2 7.9.4 7.9.3 8 1.2 7.9 2 7.9 6.9 8-2.4 7.9 5.8 7.9-2.5 8 1.4 7.9 5.3 7.9 2.2 8 3.2 7.9 1.6 8 1.1 7.9 2 7.9 5.3 8-2.8"/></g><g><path fill="none" stroke="#ddd" stroke-linecap="round" stroke-linejoin="round" stroke-width="1" d="m324.5 252.5 7.9.9 7.9-.4 8-2 7.9-3.2 7.9-2.2 8-1.7 7.9-4 7.9-3 8-3 7.9-4.1 8-2.3 7.9-1.9 7.9-3.4 8-2.6 7.9-3.1 7.9-2.6 8-3.1 7.9.2 7.9 5.6 8-2.9 7.9-1.3 7.9-1.7 8-2.3 7.9-4 7.9-3.2 8-2.9 7.9-3.3 8-2.4 7.9-2.3 7.9 16 8-9.7"/></g><g><path fill="none" stroke="#fff" stroke-linecap="butt" stroke-linejoin="round" stroke-width="2.5" d="m324.5 252.5 7.9-.9 7.9-2.1 8 4.4 7.9.9 7.9.6 8-3.6 7.9.2 7.9-3 8 1.8 7.9-7.9 8 2.3 7.9-1.1 7.9-1.6 8-1.5 7.9 1.3 7.9-.5 8 .2 7.9 3.9 7.9 11.3 8-6.1 7.9 8.1 7.9-3 8 2.3 7.9 2.7 7.9.9 8 1.9 7.9 3.4 8 1.5 7.9 2.7 7.9 6"/><path fill="none" stroke="#be243a" stroke-linecap="butt" stroke-linejoin="round" stroke-width="1.5" d="m324.5 252.5 7.9-.9 7.9-2.1 8 4.4 7.9.9 7.9.6 8-3.6 7.9.2 7.9-3 8 1.8 7.9-7.9 8 2.3 7.9-1.1 7.9-1.6 8-1.5 7.9 1.3 7.9-.5 8 .2 7.9 3.9 7.9 11.3 8-6.1 7.9 8.1 7.9-3 8 2.3 7.9 2.7 7.9.9 8 1.9 7.9 3.4 8 1.5 7.9 2.7 7.9 6"/></g><g><path fill="none" stroke="#fff" stroke-linecap="butt" stroke-linejoin="round" stroke-width="2.5" d="m324.5 252.5 7.9-1.1 7.9 2.2 8 1.9 7.9.8 7.9 1.1 8-2.9 7.9 3.3 7.9-.8 8 1 7.9-1 8-1.3 7.9 2.5 7.9-1.6 8-.2 7.9.4 7.9.3 8 1.2 7.9 2 7.9 6.9 8-2.4 7.9 5.8 7.9-2.5 8 1.4 7.9 5.3 7.9 2.2 8 3.2 7.9 1.6 8 1.1 7.9 2 7.9 5.3 8-2.8"/><path fill="none" stroke="#4c6a9c" stroke-linecap="butt" stroke-linejoin="round" stroke-width="1.5" d="m324.5 252.5 7.9-1.1 7.9 2.2 8 1.9 7.9.8 7.9 1.1 8-2.9 7.9 3.3 7.9-.8 8 1 7.9-1 8-1.3 7.9 2.5 7.9-1.6 8-.2 7.9.4 7.9.3 8 1.2 7.9 2 7.9 6.9 8-2.4 7.9 5.8 7.9-2.5 8 1.4 7.9 5.3 7.9 2.2 8 3.2 7.9 1.6 8 1.1 7.9 2 7.9 5.3 8-2.8"/></g><g><path fill="none" stroke="#fff" stroke-linecap="butt" stroke-linejoin="round" stroke-width="2.5" d="m324.5 252.5 7.9.9 7.9-.4 8-2 7.9-3.2 7.9-2.2 8-1.7 7.9-4 7.9-3 8-3 7.9-4.1 8-2.3 7.9-1.9 7.9-3.4 8-2.6 7.9-3.1 7.9-2.6 8-3.1 7.9.2 7.9 5.6 8-2.9 7.9-1.3 7.9-1.7 8-2.3 7.9-4 7.9-3.2 8-2.9 7.9-3.3 8-2.4 7.9-2.3 7.9 16 8-9.7"/><path fill="none" stroke="#00847e" stroke-linecap="butt" stroke-linejoin="round" stroke-width="1.5" d="m324.5 252.5 7.9.9 7.9-.4 8-2 7.9-3.2 7.9-2.2 8-1.7 7.9-4 7.9-3 8-3 7.9-4.1 8-2.3 7.9-1.9 7.9-3.4 8-2.6 7.9-3.1 7.9-2.6 8-3.1 7.9.2 7.9 5.6 8-2.9 7.9-1.3 7.9-1.7 8-2.3 7.9-4 7.9-3.2 8-2.9 7.9-3.3 8-2.4 7.9-2.3 7.9 16 8-9.7"/></g></g></g></g><text x="586.46" y="143.21" fill="#1d3d63" font-size="14.63" style="font-weight:700">United States</text><g class="LineChart"><defs><clipPath id="boundsClip-87"><path d="M576.46 146.37h267v174h-267z"/></clipPath></defs><path fill="none" d="M586.46 156.37h247v154h-247z"/><g class="DualAxisView"><g class="HorizontalAxis"><path stroke="#999" d="M586.5 290.21v5M832.5 290.21v5M665.8 290.21v5M705.5 290.21v5M745.2 290.21v5"/><text x="586.46" y="308.37" fill="#666" font-size="13.16" text-anchor="start">1990</text><text x="832.46" y="308.37" fill="#666" font-size="13.16" text-anchor="end">2021</text><text x="665.8" y="308.37" fill="#666" font-size="13.16" text-anchor="middle">2000</text><text x="705.5" y="308.37" fill="#666" font-size="13.16" text-anchor="middle">2005</text><text x="745.2" y="308.37" fill="#666" font-size="13.16" text-anchor="middle">2010</text></g><g class="AxisGridLines horizontalLines"><path stroke="#ddd" stroke-dasharray="2,1" d="M586.46 285.4h246M586.46 268.9h246"/><path stroke="#999" d="M586.46 252.5h246"/><path stroke="#ddd" stroke-dasharray="2,1" d="M586.46 236h246M586.46 219.5h246M586.46 203h246M586.46 186.5h246M586.46 170h246"/></g></g><g clip-path="url(#boundsClip-87)"><g class="Lines"><g><path fill="none" stroke="#ddd" stroke-linecap="round" stroke-linejoin="round" stroke-width="1" d="m586.5 252.5 7.9 1.4 7.9-3.1 8-1 7.9-1.6 7.9-1 8-2.8 7.9-1.7 7.9-2.7 8-2.9 7.9-4.2 8 1.2 7.9-2 7.9-3.2 8-2.2 7.9-1.7 7.9.2 8 1.1 7.9 5.3 7.9 8.8 8-3 7.9 2.4 7.9 2.7 8-1.4 7.9-1.6 7.9.7 8 2.2 7.9.5 8-2.8 7.9 1.8 7.9 8.1"/></g><g><path fill="none" stroke="#ddd" stroke-linecap="round" stroke-linejoin="round" stroke-width="1" d="m586.5 252.5 7.9.9 7.9-1.8 8-1.6 7.9-1.5 7.9-1 8-3 7.9-1.2 7.9-.7 8-1.2 7.9-3.3 8 1.6 7.9-.6 7.9-1 8-1.7 7.9-.3 7.9 1.3 8-1.3 7.9 3.5 7.9 7 8-3.1 7.9 2.1 7.9 3.3 8-2.2 7.9-.8 7.9 2.5 8 2 7.9.6 8-2.6 7.9 1.9 7.9 8.7 8-4.7"/></g><g><path fill="none" stroke="#ddd" stroke-linecap="round" stroke-linejoin="round" stroke-width="1" d="M586.5 252.5h7.9l7.9-2.9 8-2.3 7.9-3.5 7.9-2.5 8-3.5 7.9-4.3 7.9-4.6 8-5.1 7.9-4.5 8-1.1 7.9-2 7.9-3.3 8-4.7 7.9-4.4 7.9-3.6 8-2.8 7.9-.1 7.9 3.6 8-3.7 7.9-2.1 7.9-3.2 8-2.6 7.9-3.4 7.9-4 8-2.6 7.9-3.4 8-4.7 7.9-3.8 7.9 4.7 8-9.7"/></g><g><path fill="none" stroke="#fff" stroke-linecap="butt" stroke-linejoin="round" stroke-width="2.5" d="m586.5 252.5 7.9 1.4 7.9-3.1 8-1 7.9-1.6 7.9-1 8-2.8 7.9-1.7 7.9-2.7 8-2.9 7.9-4.2 8 1.2 7.9-2 7.9-3.2 8-2.2 7.9-1.7 7.9.2 8 1.1 7.9 5.3 7.9 8.8 8-3 7.9 2.4 7.9 2.7 8-1.4 7.9-1.6 7.9.7 8 2.2 7.9.5 8-2.8 7.9 1.8 7.9 8.1"/><path fill="none" stroke="#be243a" stroke-linecap="butt" stroke-linejoin="round" stroke-width="1.5" d="m586.5 252.5 7.9 1.4 7.9-3.1 8-1 7.9-1.6 7.9-1 8-2.8 7.9-1.7 7.9-2.7 8-2.9 7.9-4.2 8 1.2 7.9-2 7.9-3.2 8-2.2 7.9-1.7 7.9.2 8 1.1 7.9 5.3 7.9 8.8 8-3 7.9 2.4 7.9 2.7 8-1.4 7.9-1.6 7.9.7 8 2.2 7.9.5 8-2.8 7.9 1.8 7.9 8.1"/></g><g><path fill="none" stroke="#fff" stroke-linecap="butt" stroke-linejoin="round" stroke-width="2.5" d="m586.5 252.5 7.9.9 7.9-1.8 8-1.6 7.9-1.5 7.9-1 8-3 7.9-1.2 7.9-.7 8-1.2 7.9-3.3 8 1.6 7.9-.6 7.9-1 8-1.7 7.9-.3 7.9 1.3 8-1.3 7.9 3.5 7.9 7 8-3.1 7.9 2.1 7.9 3.3 8-2.2 7.9-.8 7.9 2.5 8 2 7.9.6 8-2.6 7.9 1.9 7.9 8.7 8-4.7"/><path fill="none" stroke="#4c6a9c" stroke-linecap="butt" stroke-linejoin="round" stroke-width="1.5" d="m586.5 252.5 7.9.9 7.9-1.8 8-1.6 7.9-1.5 7.9-1 8-3 7.9-1.2 7.9-.7 8-1.2 7.9-3.3 8 1.6 7.9-.6 7.9-1 8-1.7 7.9-.3 7.9 1.3 8-1.3 7.9 3.5 7.9 7 8-3.1 7.9 2.1 7.9 3.3 8-2.2 7.9-.8 7.9 2.5 8 2 7.9.6 8-2.6 7.9 1.9 7.9 8.7 8-4.7"/></g><g><path fill="none" stroke="#fff" stroke-linecap="butt" stroke-linejoin="round" stroke-width="2.5" d="M586.5 252.5h7.9l7.9-2.9 8-2.3 7.9-3.5 7.9-2.5 8-3.5 7.9-4.3 7.9-4.6 8-5.1 7.9-4.5 8-1.1 7.9-2 7.9-3.3 8-4.7 7.9-4.4 7.9-3.6 8-2.8 7.9-.1 7.9 3.6 8-3.7 7.9-2.1 7.9-3.2 8-2.6 7.9-3.4 7.9-4 8-2.6 7.9-3.4 8-4.7 7.9-3.8 7.9 4.7 8-9.7"/><path fill="none" stroke="#00847e" stroke-linecap="butt" stroke-linejoin="round" stroke-width="1.5" d="M586.5 252.5h7.9l7.9-2.9 8-2.3 7.9-3.5 7.9-2.5 8-3.5 7.9-4.3 7.9-4.6 8-5.1 7.9-4.5 8-1.1 7.9-2 7.9-3.3 8-4.7 7.9-4.4 7.9-3.6 8-2.8 7.9-.1 7.9 3.6 8-3.7 7.9-2.1 7.9-3.2 8-2.6 7.9-3.4 7.9-4 8-2.6 7.9-3.4 8-4.7 7.9-3.8 7.9 4.7 8-9.7"/></g></g></g></g><text x="62.46" y="348.21" fill="#1d3d63" font-size="14.63" style="font-weight:700">France</text><g class="LineChart"><defs><clipPath id="boundsClip-88"><path d="M52.46 351.37h313.46v174H52.46z"/></clipPath></defs><path fill="none" d="M16 361.37h293.46v154H16z"/><g class="DualAxisView"><g class="HorizontalAxis"><path stroke="#999" d="M62.5 495.21v5M308.5 495.21v5M141.8 495.21v5M181.5 495.21v5M221.2 495.21v5"/><text x="62.46" y="513.37" fill="#666" font-size="13.16" text-anchor="start">1990</text><text x="308.46" y="513.37" fill="#666" font-size="13.16" text-anchor="end">2021</text><text x="141.8" y="513.37" fill="#666" font-size="13.16" text-anchor="middle">2000</text><text x="181.5" y="513.37" fill="#666" font-size="13.16" text-anchor="middle">2005</text><text x="221.2" y="513.37" fill="#666" font-size="13.16" text-anchor="middle">2010</text></g><g class="VerticalAxis"><text x="57.46" y="490.4" fill="#666" dy=".32em" font-size="13.16" text-anchor="end">-40%</text><text x="57.46" y="457.5" fill="#666" dy=".32em" font-size="13.16" text-anchor="end">+0%</text><text x="57.46" y="424.5" fill="#666" dy=".32em" font-size="13.16" text-anchor="end">+40%</text><text x="57.46" y="391.5" fill="#666" dy=".32em" font-size="13.16" text-anchor="end">+80%</text></g><g class="AxisGridLines horizontalLines"><path stroke="#ddd" stroke-dasharray="2,1" d="M62.46 490.4h246M62.46 473.9h246"/><path stroke="#999" d="M62.46 457.5h246"/><path stroke="#ddd" stroke-dasharray="2,1" d="M62.46 441h246M62.46 424.5h246M62.46 408h246M62.46 391.5h246M62.46 375h246"/></g></g><g clip-path="url(#boundsClip-88)"><g class="Lines"><g><path fill="none" stroke="#ddd" stroke-linecap="round" stroke-linejoin="round" stroke-width="1" d="m62.5 457.5 7.9-2 7.9-6.8 8 6.8 7.9 2.1 7.9-1.5 8-.2 7.9 2.4 7.9-3.4 8-.4 7.9-1 8-.1 7.9 1 7.9-1.6 8-3.6 7.9-1.5 7.9.1 8-.1 7.9 1 7.9 6.8 8 .1 7.9.4 7.9 3.5 8 2.2 7.9 5.2 7.9 2.1 8-1.4 7.9.5 8 .2 7.9 2.1 7.9 6.7"/></g><g><path fill="none" stroke="#ddd" stroke-linecap="round" stroke-linejoin="round" stroke-width="1" d="m62.5 457.5 7.9-5.3 7.9 2.5 8 3.9 7.9 1.3 7.9-.9 8-3.2 7.9 1.5 7.9-4.1 8 .3 7.9 1.1 8-1 7.9.8 7.9-1 8-.2 7.9-.5 7.9 2 8 2.1 7.9 1.2 7.9 4.1 8-1.1 7.9 4.6 7.9-.5 8-.4 7.9 6.6 7.9-.9 8-.6 7.9-.6 8 3.1 7.9 1.3 7.9 7.6 8-5.4"/></g><g><path fill="none" stroke="#ddd" stroke-linecap="round" stroke-linejoin="round" stroke-width="1" d="m62.5 457.5 7.9-.9 7.9-1.3 8 .5 7.9-2 7.9-1.8 8-1.3 7.9-2 7.9-3.3 8-3.2 7.9-3.9 8-2 7.9-1.2 7.9-.8 8-3 7.9-1.8 7.9-2.7 8-2.8 7.9-.3 7.9 3.4 8-2.2 7.9-2.6 7.9-.3 8-.7 7.9-1.1 7.9-1.4 8-1.3 7.9-2.8 8-2.3 7.9-2.4 7.9 10.1 8-8.1"/></g><g><path fill="none" stroke="#fff" stroke-linecap="butt" stroke-linejoin="round" stroke-width="2.5" d="m62.5 457.5 7.9-2 7.9-6.8 8 6.8 7.9 2.1 7.9-1.5 8-.2 7.9 2.4 7.9-3.4 8-.4 7.9-1 8-.1 7.9 1 7.9-1.6 8-3.6 7.9-1.5 7.9.1 8-.1 7.9 1 7.9 6.8 8 .1 7.9.4 7.9 3.5 8 2.2 7.9 5.2 7.9 2.1 8-1.4 7.9.5 8 .2 7.9 2.1 7.9 6.7"/><path fill="none" stroke="#be243a" stroke-linecap="butt" stroke-linejoin="round" stroke-width="1.5" d="m62.5 457.5 7.9-2 7.9-6.8 8 6.8 7.9 2.1 7.9-1.5 8-.2 7.9 2.4 7.9-3.4 8-.4 7.9-1 8-.1 7.9 1 7.9-1.6 8-3.6 7.9-1.5 7.9.1 8-.1 7.9 1 7.9 6.8 8 .1 7.9.4 7.9 3.5 8 2.2 7.9 5.2 7.9 2.1 8-1.4 7.9.5 8 .2 7.9 2.1 7.9 6.7"/></g><g><path fill="none" stroke="#fff" stroke-linecap="butt" stroke-linejoin="round" stroke-width="2.5" d="m62.5 457.5 7.9-5.3 7.9 2.5 8 3.9 7.9 1.3 7.9-.9 8-3.2 7.9 1.5 7.9-4.1 8 .3 7.9 1.1 8-1 7.9.8 7.9-1 8-.2 7.9-.5 7.9 2 8 2.1 7.9 1.2 7.9 4.1 8-1.1 7.9 4.6 7.9-.5 8-.4 7.9 6.6 7.9-.9 8-.6 7.9-.6 8 3.1 7.9 1.3 7.9 7.6 8-5.4"/><path fill="none" stroke="#4c6a9c" stroke-linecap="butt" stroke-linejoin="round" stroke-width="1.5" d="m62.5 457.5 7.9-5.3 7.9 2.5 8 3.9 7.9 1.3 7.9-.9 8-3.2 7.9 1.5 7.9-4.1 8 .3 7.9 1.1 8-1 7.9.8 7.9-1 8-.2 7.9-.5 7.9 2 8 2.1 7.9 1.2 7.9 4.1 8-1.1 7.9 4.6 7.9-.5 8-.4 7.9 6.6 7.9-.9 8-.6 7.9-.6 8 3.1 7.9 1.3 7.9 7.6 8-5.4"/></g><g><path fill="none" stroke="#fff" stroke-linecap="butt" stroke-linejoin="round" stroke-width="2.5" d="m62.5 457.5 7.9-.9 7.9-1.3 8 .5 7.9-2 7.9-1.8 8-1.3 7.9-2 7.9-3.3 8-3.2 7.9-3.9 8-2 7.9-1.2 7.9-.8 8-3 7.9-1.8 7.9-2.7 8-2.8 7.9-.3 7.9 3.4 8-2.2 7.9-2.6 7.9-.3 8-.7 7.9-1.1 7.9-1.4 8-1.3 7.9-2.8 8-2.3 7.9-2.4 7.9 10.1 8-8.1"/><path fill="none" stroke="#00847e" stroke-linecap="butt" stroke-linejoin="round" stroke-width="1.5" d="m62.5 457.5 7.9-.9 7.9-1.3 8 .5 7.9-2 7.9-1.8 8-1.3 7.9-2 7.9-3.3 8-3.2 7.9-3.9 8-2 7.9-1.2 7.9-.8 8-3 7.9-1.8 7.9-2.7 8-2.8 7.9-.3 7.9 3.4 8-2.2 7.9-2.6 7.9-.3 8-.7 7.9-1.1 7.9-1.4 8-1.3 7.9-2.8 8-2.3 7.9-2.4 7.9 10.1 8-8.1"/></g></g></g></g><text x="324.46" y="348.21" fill="#1d3d63" font-size="14.63" style="font-weight:700">Germany</text><g class="LineChart"><defs><clipPath id="boundsClip-89"><path d="M314.46 351.37h267v174h-267z"/></clipPath></defs><path fill="none" d="M324.46 361.37h247v154h-247z"/><g class="DualAxisView"><g class="HorizontalAxis"><path stroke="#999" d="M324.5 495.21v5M570.5 495.21v5M403.8 495.21v5M443.5 495.21v5M483.2 495.21v5"/><text x="324.46" y="513.37" fill="#666" font-size="13.16" text-anchor="start">1990</text><text x="570.46" y="513.37" fill="#666" font-size="13.16" text-anchor="end">2021</text><text x="403.8" y="513.37" fill="#666" font-size="13.16" text-anchor="middle">2000</text><text x="443.5" y="513.37" fill="#666" font-size="13.16" text-anchor="middle">2005</text><text x="483.2" y="513.37" fill="#666" font-size="13.16" text-anchor="middle">2010</text></g><g class="AxisGridLines horizontalLines"><path stroke="#ddd" stroke-dasharray="2,1" d="M324.46 490.4h246M324.46 473.9h246"/><path stroke="#999" d="M324.46 457.5h246"/><path stroke="#ddd" stroke-dasharray="2,1" d="M324.46 441h246M324.46 424.5h246M324.46 408h246M324.46 391.5h246M324.46 375h246"/></g></g><g clip-path="url(#boundsClip-89)"><g class="Lines"><g><path fill="none" stroke="#ddd" stroke-linecap="round" stroke-linejoin="round" stroke-width="1" d="m324.5 457.5 7.9 3.4 7.9-4.3 8 3.2 7.9 1.9 7.9-.5 8 1.1 7.9 3.2 7.9-.2 8-.7 7.9.4 8 .1 7.9 3.7 7.9-2.8 8 1.2 7.9.1 7.9.5h8l7.9.1 7.9 4.6 8-3.5 7.9 2.9 7.9 4.4 8-.6 7.9 1.5 7.9.9 8-1.3 7.9.9 8 1 7.9 2.9 7.9 5.1"/></g><g><path fill="none" stroke="#ddd" stroke-linecap="round" stroke-linejoin="round" stroke-width="1" d="m324.5 457.5 7.9 2.9 7.9 3.8 8 .8 7.9 1.3h7.9l8-1.5 7.9 2.1 7.9.7 8 2.1 7.9-.3 8-1.3 7.9 1.3 7.9-.1 8 1.1 7.9 1.6 7.9-.9 8 2.1 7.9-.3 7.9 5.1 8-3.4 7.9 1.9 7.9-.4 8-1.3 7.9 3 7.9-.3 8-.3 7.9 1.1 8 2.5 7.9 3.7 7.9 5.3 8-2.8"/></g><g><path fill="none" stroke="#ddd" stroke-linecap="round" stroke-linejoin="round" stroke-width="1" d="m324.5 457.5 7.9-4.3 7.9-1.6 8 .8 7.9-2.1 7.9-1.3 8-.8 7.9-1.6 7.9-1.9 8-1.8 7.9-2.8 8-1.7 7.9.2 7.9.7 8-1.2 7.9-.7 7.9-3.9 8-3.2 7.9-1 7.9 6.3 8-4.4 7.9-4.3 7.9-.4 8-.5 7.9-2.6 7.9-1.7 8-2.6 7.9-3.3 8-1.2 7.9-1.3 7.9 4.7 8-3.2"/></g><g><path fill="none" stroke="#fff" stroke-linecap="butt" stroke-linejoin="round" stroke-width="2.5" d="m324.5 457.5 7.9 3.4 7.9-4.3 8 3.2 7.9 1.9 7.9-.5 8 1.1 7.9 3.2 7.9-.2 8-.7 7.9.4 8 .1 7.9 3.7 7.9-2.8 8 1.2 7.9.1 7.9.5h8l7.9.1 7.9 4.6 8-3.5 7.9 2.9 7.9 4.4 8-.6 7.9 1.5 7.9.9 8-1.3 7.9.9 8 1 7.9 2.9 7.9 5.1"/><path fill="none" stroke="#be243a" stroke-linecap="butt" stroke-linejoin="round" stroke-width="1.5" d="m324.5 457.5 7.9 3.4 7.9-4.3 8 3.2 7.9 1.9 7.9-.5 8 1.1 7.9 3.2 7.9-.2 8-.7 7.9.4 8 .1 7.9 3.7 7.9-2.8 8 1.2 7.9.1 7.9.5h8l7.9.1 7.9 4.6 8-3.5 7.9 2.9 7.9 4.4 8-.6 7.9 1.5 7.9.9 8-1.3 7.9.9 8 1 7.9 2.9 7.9 5.1"/></g><g><path fill="none" stroke="#fff" stroke-linecap="butt" stroke-linejoin="round" stroke-width="2.5" d="m324.5 457.5 7.9 2.9 7.9 3.8 8 .8 7.9 1.3h7.9l8-1.5 7.9 2.1 7.9.7 8 2.1 7.9-.3 8-1.3 7.9 1.3 7.9-.1 8 1.1 7.9 1.6 7.9-.9 8 2.1 7.9-.3 7.9 5.1 8-3.4 7.9 1.9 7.9-.4 8-1.3 7.9 3 7.9-.3 8-.3 7.9 1.1 8 2.5 7.9 3.7 7.9 5.3 8-2.8"/><path fill="none" stroke="#4c6a9c" stroke-linecap="butt" stroke-linejoin="round" stroke-width="1.5" d="m324.5 457.5 7.9 2.9 7.9 3.8 8 .8 7.9 1.3h7.9l8-1.5 7.9 2.1 7.9.7 8 2.1 7.9-.3 8-1.3 7.9 1.3 7.9-.1 8 1.1 7.9 1.6 7.9-.9 8 2.1 7.9-.3 7.9 5.1 8-3.4 7.9 1.9 7.9-.4 8-1.3 7.9 3 7.9-.3 8-.3 7.9 1.1 8 2.5 7.9 3.7 7.9 5.3 8-2.8"/></g><g><path fill="none" stroke="#fff" stroke-linecap="butt" stroke-linejoin="round" stroke-width="2.5" d="m324.5 457.5 7.9-4.3 7.9-1.6 8 .8 7.9-2.1 7.9-1.3 8-.8 7.9-1.6 7.9-1.9 8-1.8 7.9-2.8 8-1.7 7.9.2 7.9.7 8-1.2 7.9-.7 7.9-3.9 8-3.2 7.9-1 7.9 6.3 8-4.4 7.9-4.3 7.9-.4 8-.5 7.9-2.6 7.9-1.7 8-2.6 7.9-3.3 8-1.2 7.9-1.3 7.9 4.7 8-3.2"/><path fill="none" stroke="#00847e" stroke-linecap="butt" stroke-linejoin="round" stroke-width="1.5" d="m324.5 457.5 7.9-4.3 7.9-1.6 8 .8 7.9-2.1 7.9-1.3 8-.8 7.9-1.6 7.9-1.9 8-1.8 7.9-2.8 8-1.7 7.9.2 7.9.7 8-1.2 7.9-.7 7.9-3.9 8-3.2 7.9-1 7.9 6.3 8-4.4 7.9-4.3 7.9-.4 8-.5 7.9-2.6 7.9-1.7 8-2.6 7.9-3.3 8-1.2 7.9-1.3 7.9 4.7 8-3.2"/></g></g></g></g><text x="586.46" y="348.21" fill="#1d3d63" font-size="14.63" style="font-weight:700">European Union (27)</text><g class="LineChart"><defs><clipPath id="boundsClip-90"><path d="M576.46 351.37h267v174h-267z"/></clipPath></defs><path fill="none" d="M586.46 361.37h247v154h-247z"/><g class="DualAxisView"><g class="HorizontalAxis"><path stroke="#999" d="M586.5 495.21v5M832.5 495.21v5M665.8 495.21v5M705.5 495.21v5M745.2 495.21v5"/><text x="586.46" y="513.37" fill="#666" font-size="13.16" text-anchor="start">1990</text><text x="832.46" y="513.37" fill="#666" font-size="13.16" text-anchor="end">2021</text><text x="665.8" y="513.37" fill="#666" font-size="13.16" text-anchor="middle">2000</text><text x="705.5" y="513.37" fill="#666" font-size="13.16" text-anchor="middle">2005</text><text x="745.2" y="513.37" fill="#666" font-size="13.16" text-anchor="middle">2010</text></g><g class="AxisGridLines horizontalLines"><path stroke="#ddd" stroke-dasharray="2,1" d="M586.46 490.4h246M586.46 473.9h246"/><path stroke="#999" d="M586.46 457.5h246"/><path stroke="#ddd" stroke-dasharray="2,1" d="M586.46 441h246M586.46 424.5h246M586.46 408h246M586.46 391.5h246M586.46 375h246"/></g></g><g clip-path="url(#boundsClip-90)"><g class="Lines"><g><path fill="none" stroke="#ddd" stroke-linecap="round" stroke-linejoin="round" stroke-width="1" d="m586.5 457.5 7.9 2 7.9-5.9 8 5.7 7.9 2.2 7.9-1.1 8 .9 7.9 1.6 7.9-1 8 .1 7.9-.9 8-.2 7.9.3 7.9-3 8-1.2 7.9-1.7 7.9-1.8 8-.2 7.9.6 7.9 8.3 8-3 7.9 2.6 7.9 5 8 2.3 7.9 2.2 7.9.9 8-.3 7.9-.7 8-.5 7.9 3 7.9 6"/></g><g><path fill="none" stroke="#ddd" stroke-linecap="round" stroke-linejoin="round" stroke-width="1" d="m586.5 457.5 7.9 1.3 7.9 2.7 8 1.5 7.9.4 7.9-1.1 8-1.8 7.9 1.4 7.9.2 8 1.2 7.9-.2 8-1.3h7.9l7.9-1.8 8-.2 7.9.4 7.9-.2 8 .8 7.9 1.7 7.9 6.3 8-2.1 7.9 2.1 7.9 1.6 8 1.7 7.9 3 7.9-1.2 8-.1 7.9-.5 8 1.6 7.9 3 7.9 6.1 8-3.7"/></g><g><path fill="none" stroke="#ddd" stroke-linecap="round" stroke-linejoin="round" stroke-width="1" d="m586.5 457.5 7.9-1.2 7.9-.8 8 .4 7.9-2.3 7.9-2.4 8-1.8 7.9-2.3 7.9-2.7 8-2.8 7.9-3.8 8-2.3 7.9-1.3 7.9-1.2 8-2.9 7.9-2.3 7.9-4.1 8-3.9 7.9-1.1 7.9 5.2 8-2.4 7.9-2.2 7.9.9 8 .1 7.9-2 7.9-2.9 8-2.5 7.9-3.9 8-2.9 7.9-2.6 7.9 7.7 8-7"/></g><g><path fill="none" stroke="#fff" stroke-linecap="butt" stroke-linejoin="round" stroke-width="2.5" d="m586.5 457.5 7.9 2 7.9-5.9 8 5.7 7.9 2.2 7.9-1.1 8 .9 7.9 1.6 7.9-1 8 .1 7.9-.9 8-.2 7.9.3 7.9-3 8-1.2 7.9-1.7 7.9-1.8 8-.2 7.9.6 7.9 8.3 8-3 7.9 2.6 7.9 5 8 2.3 7.9 2.2 7.9.9 8-.3 7.9-.7 8-.5 7.9 3 7.9 6"/><path fill="none" stroke="#be243a" stroke-linecap="butt" stroke-linejoin="round" stroke-width="1.5" d="m586.5 457.5 7.9 2 7.9-5.9 8 5.7 7.9 2.2 7.9-1.1 8 .9 7.9 1.6 7.9-1 8 .1 7.9-.9 8-.2 7.9.3 7.9-3 8-1.2 7.9-1.7 7.9-1.8 8-.2 7.9.6 7.9 8.3 8-3 7.9 2.6 7.9 5 8 2.3 7.9 2.2 7.9.9 8-.3 7.9-.7 8-.5 7.9 3 7.9 6"/></g><g><path fill="none" stroke="#fff" stroke-linecap="butt" stroke-linejoin="round" stroke-width="2.5" d="m586.5 457.5 7.9 1.3 7.9 2.7 8 1.5 7.9.4 7.9-1.1 8-1.8 7.9 1.4 7.9.2 8 1.2 7.9-.2 8-1.3h7.9l7.9-1.8 8-.2 7.9.4 7.9-.2 8 .8 7.9 1.7 7.9 6.3 8-2.1 7.9 2.1 7.9 1.6 8 1.7 7.9 3 7.9-1.2 8-.1 7.9-.5 8 1.6 7.9 3 7.9 6.1 8-3.7"/><path fill="none" stroke="#4c6a9c" stroke-linecap="butt" stroke-linejoin="round" stroke-width="1.5" d="m586.5 457.5 7.9 1.3 7.9 2.7 8 1.5 7.9.4 7.9-1.1 8-1.8 7.9 1.4 7.9.2 8 1.2 7.9-.2 8-1.3h7.9l7.9-1.8 8-.2 7.9.4 7.9-.2 8 .8 7.9 1.7 7.9 6.3 8-2.1 7.9 2.1 7.9 1.6 8 1.7 7.9 3 7.9-1.2 8-.1 7.9-.5 8 1.6 7.9 3 7.9 6.1 8-3.7"/></g><g><path fill="none" stroke="#fff" stroke-linecap="butt" stroke-linejoin="round" stroke-width="2.5" d="m586.5 457.5 7.9-1.2 7.9-.8 8 .4 7.9-2.3 7.9-2.4 8-1.8 7.9-2.3 7.9-2.7 8-2.8 7.9-3.8 8-2.3 7.9-1.3 7.9-1.2 8-2.9 7.9-2.3 7.9-4.1 8-3.9 7.9-1.1 7.9 5.2 8-2.4 7.9-2.2 7.9.9 8 .1 7.9-2 7.9-2.9 8-2.5 7.9-3.9 8-2.9 7.9-2.6 7.9 7.7 8-7"/><path fill="none" stroke="#00847e" stroke-linecap="butt" stroke-linejoin="round" stroke-width="1.5" d="m586.5 457.5 7.9-1.2 7.9-.8 8 .4 7.9-2.3 7.9-2.4 8-1.8 7.9-2.3 7.9-2.7 8-2.8 7.9-3.8 8-2.3 7.9-1.3 7.9-1.2 8-2.9 7.9-2.3 7.9-4.1 8-3.9 7.9-1.1 7.9 5.2 8-2.4 7.9-2.2 7.9.9 8 .1 7.9-2 7.9-2.9 8-2.5 7.9-3.9 8-2.9 7.9-2.6 7.9 7.7 8-7"/></g></g></g></g><g class="SourcesFooter" style="fill:#5b5b5b"><text x="16" y="545.8" style="font-size:13px;line-height:1.2"><tspan x="16" y="545.8"><tspan style="font-weight:700">Data source:</tspan> Data compiled from multiple sources by World Bank; Global Carbon Budget (2022)</tspan></text><text x="16" y="563.4" style="font-size:13px;line-height:1.2"><tspan x="16" y="563.4"><tspan style="font-weight:700">Note:</tspan> Gross Domestic Product (GDP) figures are adjusted for inflation.</tspan></text><text x="16" y="581" font-size="13"><tspan x="16" y="581.01"><a href="https://ourworldindata.org/co2-and-greenhouse-gas-emissions" style="fill:#5b5b5b;text-decoration:underline" target="_blank">OurWorldInData.org/co2-and-greenhouse-gas-emissions</a> | <a href="https://creativecommons.org/licenses/by/4.0/" style="fill:#5b5b5b;text-decoration:underline" target="_blank">CC BY</a></tspan></text></g></svg>