<svg xmlns="http://www.w3.org/2000/svg" width="850" height="600" style="font-family:Lato,&quot;Helvetica Neue&quot;,Helvetica,Arial,&quot;Liberation Sans&quot;,sans-serif;font-size:18px;background-color:#fff;text-rendering:geometricPrecision;-webkit-font-smoothing:antialiased" version="1.1" viewBox="0 0 850 600"><defs><style>@import url(/fonts.css);</style></defs><defs><pattern id="noDataPattern" width="4" height="4" patternTransform="rotate(-45 2 2)" patternUnits="userSpaceOnUse"><path stroke="#ccc" stroke-width=".7" d="M-1 2h6"/></pattern></defs><path fill="#fff" d="M0 0h850v600H0z" class="background-fill"/><g class="HeaderView"><g transform="translate(769 16)"><svg xmlns="http://www.w3.org/2000/svg" width="65" height="36" fill="none" className="owidLogo" viewBox="0 0 65 36"><path fill="#002147" d="M0 0h64.8v36H0z"/><path fill="#CE261E" d="M0 33.3h64.8V36H0z"/><path fill="#fff" d="M13.8 10.57c0 .64-.11 1.23-.32 1.77a4.2 4.2 0 0 1-.9 1.4 4.08 4.08 0 0 1-1.38.94c-.54.22-1.14.33-1.8.33-.65 0-1.25-.11-1.8-.33a4.15 4.15 0 0 1-1.39-.93 4.2 4.2 0 0 1-.9-1.4A4.83 4.83 0 0 1 5 10.56c0-.63.1-1.22.32-1.76a4.18 4.18 0 0 1 .9-1.4 4.08 4.08 0 0 1 1.38-.93 4.68 4.68 0 0 1 1.8-.34c.66 0 1.26.11 1.8.34a4.08 4.08 0 0 1 2.28 2.33c.21.54.32 1.13.32 1.76Zm-1.66 0c0-.47-.06-.9-.2-1.27a2.67 2.67 0 0 0-.53-.97 2.33 2.33 0 0 0-.87-.6A2.94 2.94 0 0 0 9.4 7.5c-.42 0-.8.07-1.14.21-.34.14-.63.35-.87.61a2.74 2.74 0 0 0-.55.97 3.96 3.96 0 0 0-.19 1.27c0 .48.06.9.2 1.29a2.42 2.42 0 0 0 1.42 1.56c.33.14.71.2 1.13.2.43 0 .8-.06 1.14-.2a2.37 2.37 0 0 0 1.4-1.56 4.01 4.01 0 0 0 .2-1.29Zm3.96-1.81v3.9c0 .39.09.68.26.89.18.2.44.3.79.3.25 0 .5-.06.72-.17a2.58 2.58 0 0 0 .63-.47V8.76H20v6.15h-.91c-.2 0-.32-.09-.38-.27l-.1-.49a4.65 4.65 0 0 1-.4.35 2.58 2.58 0 0 1-.43.27 2.35 2.35 0 0 1-.5.17 2.35 2.35 0 0 1-.57.07c-.34 0-.64-.06-.9-.17a1.82 1.82 0 0 1-.64-.49 2.16 2.16 0 0 1-.4-.73 3.23 3.23 0 0 1-.14-.95V8.76h1.48Zm5.23 6.15V8.76h.87c.15 0 .26.02.32.08s.1.15.12.29l.09.74c.22-.38.47-.68.77-.9.3-.22.63-.33 1-.33.3 0 .55.07.75.21l-.19 1.11c-.01.07-.04.13-.08.16a.28.28 0 0 1-.16.04 1.01 1.01 0 0 1-.25-.04 1.65 1.65 0 0 0-.41-.04c-.3 0-.57.08-.8.25-.21.17-.4.42-.55.75v3.83h-1.48Zm6.02-8.67h1.35a.57.57 0 0 1 .35.1c.1.06.16.15.2.26l1.47 5.2a10.12 10.12 0 0 1 .19.9 5.97 5.97 0 0 1 .22-.9l1.7-5.2a.57.57 0 0 1 .2-.25.54.54 0 0 1 .34-.11h.48a.57.57 0 0 1 .34.1.5.5 0 0 1 .2.26l1.69 5.2c.08.25.16.53.22.85a31.71 31.71 0 0 1 .19-.86l1.47-5.19c.03-.1.1-.18.19-.25a.56.56 0 0 1 .34-.11h1.27l-2.7 8.67h-1.45L33.7 9l-.08-.25a9.5 9.5 0 0 1-.07-.28 4.04 4.04 0 0 1-.15.53L31.5 14.9h-1.46l-2.7-8.67Zm15.42 2.42c.46 0 .88.07 1.25.22s.7.36.96.63.47.6.61 1 .22.83.22 1.31c0 .5-.08.93-.22 1.32a2.85 2.85 0 0 1-.61 1 2.65 2.65 0 0 1-.96.64 3.35 3.35 0 0 1-1.25.22 3.4 3.4 0 0 1-1.25-.22 2.71 2.71 0 0 1-.97-.63 2.92 2.92 0 0 1-.62-1 3.8 3.8 0 0 1-.21-1.33c0-.48.07-.92.21-1.31a2.75 2.75 0 0 1 1.58-1.63 3.4 3.4 0 0 1 1.26-.22Zm0 5.2c.51 0 .9-.17 1.13-.51.25-.35.38-.85.38-1.52s-.13-1.17-.38-1.51c-.24-.35-.62-.53-1.13-.53-.52 0-.9.18-1.15.53-.25.35-.37.85-.37 1.51s.12 1.17.37 1.52c.25.34.63.51 1.15.51Zm3.95 1.05V8.76h.87c.15 0 .26.02.32.08s.1.15.12.29l.1.74c.21-.38.47-.68.76-.9.3-.22.63-.33 1-.33.3 0 .56.07.76.21l-.2 1.11c0 .07-.03.13-.07.16a.28.28 0 0 1-.17.04 1.01 1.01 0 0 1-.24-.04 1.65 1.65 0 0 0-.42-.04c-.3 0-.57.08-.79.25-.22.17-.4.42-.56.75v3.83h-1.48ZM52.96 6v8.91h-1.48V6h1.48Zm5.77 8.91c-.19 0-.32-.09-.38-.27l-.12-.6a3.68 3.68 0 0 1-.4.4 2.5 2.5 0 0 1-.98.5 2.37 2.37 0 0 1-.6.06c-.33 0-.64-.07-.92-.2a2.1 2.1 0 0 1-.73-.61 3.03 3.03 0 0 1-.46-1 5.07 5.07 0 0 1-.17-1.34c0-.45.07-.88.19-1.27s.3-.73.53-1.02c.24-.29.51-.51.84-.67a2.38 2.38 0 0 1 1.09-.25 2.1 2.1 0 0 1 1.54.6V6h1.48v8.91h-.9Zm-1.97-1.08c.3 0 .57-.07.78-.2.22-.12.42-.3.62-.54v-2.76a1.45 1.45 0 0 0-.56-.43 1.6 1.6 0 0 0-.63-.13c-.23 0-.43.04-.61.13a1.21 1.21 0 0 0-.47.38c-.12.17-.22.39-.28.65a4.3 4.3 0 0 0-.02 1.84c.06.25.14.45.25.61.1.16.24.27.4.34.15.07.33.1.52.1Zm-40.43 6.93v6.15h-1.48v-6.15h1.48Zm.22-1.8a.84.84 0 0 1-.07.36.96.96 0 0 1-.21.3 1 1 0 0 1-.3.2.96.96 0 0 1-.38.07.95.95 0 0 1-.36-.07 1.02 1.02 0 0 1-.5-.5.96.96 0 0 1 0-.73 1 1 0 0 1 .2-.3.93.93 0 0 1 .3-.2.9.9 0 0 1 .73 0 .91.91 0 0 1 .3.2.94.94 0 0 1 .3.67Zm1.22 7.95v-6.15h.9c.2 0 .32.09.38.27l.1.48a2.93 2.93 0 0 1 .84-.61 2.3 2.3 0 0 1 1.07-.24c.34 0 .63.06.9.18.25.1.47.27.64.48.18.2.3.45.4.73.09.29.13.6.13.95v3.91h-1.48V23c0-.38-.08-.67-.26-.87-.17-.21-.43-.32-.78-.32-.26 0-.5.06-.72.18a2.58 2.58 0 0 0-.64.47v4.45h-1.48Zm16.45-4.34c0 .64-.1 1.22-.32 1.76-.21.53-.5.99-.9 1.37a4 4 0 0 1-1.38.9 4.87 4.87 0 0 1-1.8.31h-3.3v-8.67h3.3a4.79 4.79 0 0 1 1.8.32 4 4 0 0 1 1.39.9c.38.37.68.83.9 1.36.2.53.31 1.12.31 1.75Zm-1.65 0c0-.47-.06-.9-.2-1.27a2.68 2.68 0 0 0-.54-.96 2.33 2.33 0 0 0-.86-.6 2.94 2.94 0 0 0-1.14-.22h-1.69v6.1h1.69c.42 0 .8-.06 1.14-.2.34-.14.63-.34.86-.6a2.75 2.75 0 0 0 .55-.96 4.01 4.01 0 0 0 .19-1.29Zm7.41 4.34h-.67a.75.75 0 0 1-.33-.06c-.07-.04-.13-.13-.17-.25l-.14-.44c-.15.14-.3.26-.46.37a2.8 2.8 0 0 1-.46.26c-.16.08-.33.13-.51.17a3.07 3.07 0 0 1-1.32-.05 1.62 1.62 0 0 1-.57-.32 1.45 1.45 0 0 1-.37-.52 1.85 1.85 0 0 1-.13-.73c0-.23.06-.46.18-.68.12-.23.33-.44.61-.62.29-.18.67-.33 1.14-.45a8.01 8.01 0 0 1 1.75-.2v-.36c0-.42-.08-.72-.26-.92-.17-.2-.42-.3-.76-.3a1.84 1.84 0 0 0-1.01.28l-.33.19a.66.66 0 0 1-.33.08.43.43 0 0 1-.26-.08.61.61 0 0 1-.17-.2l-.27-.46c.7-.65 1.56-.98 2.56-.98.36 0 .68.06.96.18a1.99 1.99 0 0 1 1.16 1.25c.1.29.16.6.16.96v3.88ZM37.1 26c.15 0 .3-.01.42-.04a1.81 1.81 0 0 0 .69-.33c.1-.09.22-.19.32-.3v-1.04c-.43.02-.79.06-1.08.12a2.8 2.8 0 0 0-.7.2.92.92 0 0 0-.37.3.66.66 0 0 0-.11.36c0 .26.07.45.22.56.16.11.36.17.61.17ZM43.22 27c-.53 0-.94-.15-1.23-.45-.29-.3-.43-.72-.43-1.25v-3.44h-.63a.31.31 0 0 1-.2-.08c-.06-.05-.09-.13-.09-.23v-.6l.99-.15.31-1.68a.3.3 0 0 1 .11-.2.36.36 0 0 1 .22-.06h.77v1.94h1.62v1.06h-1.62v3.33c0 .2.05.35.14.45a.49.49 0 0 0 .39.17.73.73 0 0 0 .39-.1l.12-.07a.2.2 0 0 1 .11-.04.16.16 0 0 1 .11.04c.03.02.06.05.09.1l.44.71c-.21.18-.46.32-.74.41a2.77 2.77 0 0 1-.87.14Zm7.2-.1h-.66a.75.75 0 0 1-.33-.06c-.08-.04-.14-.13-.18-.25l-.13-.44c-.16.14-.31.26-.47.37a2.8 2.8 0 0 1-.46.26c-.16.08-.33.13-.5.17a3.07 3.07 0 0 1-1.33-.05 1.62 1.62 0 0 1-.57-.32 1.45 1.45 0 0 1-.36-.52 1.85 1.85 0 0 1-.14-.73c0-.23.06-.46.18-.68.13-.23.33-.44.62-.62.28-.18.66-.33 1.13-.45a8.01 8.01 0 0 1 1.76-.2v-.36c0-.42-.1-.72-.27-.92-.17-.2-.42-.3-.75-.3a1.84 1.84 0 0 0-1.02.28l-.33.19a.66.66 0 0 1-.33.08.43.43 0 0 1-.25-.08.61.61 0 0 1-.18-.2l-.27-.46c.7-.65 1.56-.98 2.56-.98.36 0 .68.06.96.18a1.99 1.99 0 0 1 1.17 1.25c.1.29.15.6.15.96v3.88ZM47.54 26c.16 0 .3-.01.42-.04a1.88 1.88 0 0 0 .69-.33l.33-.3v-1.04c-.44.02-.8.06-1.09.12a2.8 2.8 0 0 0-.7.2.92.92 0 0 0-.37.3.66.66 0 0 0-.11.36c0 .26.08.45.23.56.15.11.36.17.6.17Z"/></svg></g><a href="/grapher/imported-or-exported-co-emissions-per-capita" rel="noopener" style="font-family:&quot;Playfair Display&quot;,Georgia,&quot;Times New Roman&quot;,&quot;Liberation Serif&quot;,serif" target="_blank"><text x="16" y="39.3" fill="#5b5b5b" font-size="24" font-weight="500"><tspan x="16" y="39.28">Imported or exported CO₂ emissions per capita</tspan></text></a><text x="16" y="63" fill="#5b5b5b" style="font-size:14px;line-height:1.28571"><tspan x="16" y="63">This measures the net import-export balance in tonnes of CO₂ per capita.</tspan><tspan x="16" y="81">Positive values indicate net importers of CO₂. Negative values indicate net exporters of CO₂.</tspan></text></g><g class="LineChart"><defs><clipPath id="boundsClip-1"><path d="M34.49 90.8h838v454h-838z"/></clipPath></defs><path fill="none" d="M16 100.8h818v434H16z"/><g class="DualAxisView"><g class="HorizontalAxis"><path stroke="#999" d="M44.5 511.6v5M673.2 511.6v5M149.3 511.6v5M254.1 511.6v5M358.8 511.6v5M463.6 511.6v5M568.4 511.6v5"/><text x="44.49" y="532.8" fill="#666" font-size="16.2" text-anchor="start">1990</text><text x="673.18" y="532.8" fill="#666" font-size="16.2" text-anchor="end">2020</text><text x="149.3" y="532.8" fill="#666" font-size="16.2" text-anchor="middle">1995</text><text x="254.1" y="532.8" fill="#666" font-size="16.2" text-anchor="middle">2000</text><text x="358.8" y="532.8" fill="#666" font-size="16.2" text-anchor="middle">2005</text><text x="463.6" y="532.8" fill="#666" font-size="16.2" text-anchor="middle">2010</text><text x="568.4" y="532.8" fill="#666" font-size="16.2" text-anchor="middle">2015</text></g><g class="VerticalAxis"><text x="39.49" y="488.5" fill="#666" dy=".32em" font-size="16.2" text-anchor="end">-3 t</text><text x="39.49" y="426.7" fill="#666" dy=".32em" font-size="16.2" text-anchor="end">-2 t</text><text x="39.49" y="364.9" fill="#666" dy=".32em" font-size="16.2" text-anchor="end">-1 t</text><text x="39.49" y="303.1" fill="#666" dy=".32em" font-size="16.2" text-anchor="end">0 t</text><text x="39.49" y="241.3" fill="#666" dy=".32em" font-size="16.2" text-anchor="end">1 t</text><text x="39.49" y="179.5" fill="#666" dy=".32em" font-size="16.2" text-anchor="end">2 t</text><text x="39.49" y="117.8" fill="#666" dy=".32em" font-size="16.2" text-anchor="end">3 t</text></g><g class="AxisGridLines horizontalLines"><path stroke="#ddd" stroke-dasharray="3,2" d="M44.49 488.5h628.69M44.49 426.7h628.69M44.49 364.9h628.69"/><path stroke="#999" d="M44.49 303.1h628.69"/><path stroke="#ddd" stroke-dasharray="3,2" d="M44.49 241.3h628.69M44.49 179.5h628.69M44.49 117.8h628.69"/></g></g><g clip-path="url(#boundsClip-1)"><g class="LineLabels" style="cursor:default"><g class="legendMark"><text x="677.2" y="180.6" fill="#18470f" font-size="13.5" font-weight="400"><tspan x="677.18" y="180.59">United Kingdom</tspan></text></g><g class="legendMark"><text x="677.2" y="215.3" fill="#286bbb" font-size="13.5" font-weight="400"><tspan x="677.18" y="215.3">United States</tspan></text></g><g class="legendMark"><text x="677.2" y="230.8" fill="#be5915" font-size="13.5" font-weight="400"><tspan x="677.18" y="230.8">European Union (27)</tspan></text></g><g class="legendMark"><text x="677.2" y="291.8" fill="#c15065" font-size="13.5" font-weight="400"><tspan x="677.18" y="291.8">Bangladesh</tspan></text></g><g class="legendMark"><text x="677.2" y="315.5" fill="#6d3e91" font-size="13.5" font-weight="400"><tspan x="677.18" y="315.5">India</tspan></text></g><g class="legendMark"><text x="677.2" y="348.1" fill="#2c8465" font-size="13.5" font-weight="400"><tspan x="677.18" y="348.1">China</tspan></text></g><g class="legendMark"><text x="677.2" y="448.3" fill="#cf0a66" font-size="13.5" font-weight="400"><tspan x="677.18" y="448.3">South Africa</tspan></text></g></g><g class="Lines"><g><path fill="none" stroke="#ddd" stroke-linecap="round" stroke-linejoin="round" stroke-width="1" d="m44.5 321.7 20.9 6.7 21-18.8 21 9.3 20.9-2.8 21 .2 20.9 4.7 21-6.9 20.9-26.8 21-23 21-11.2 20.9-5.6 21-17.9 20.9-26.7 21-6 20.9-16.9 21-12.8 20.9 30.5 21 22.8 21 22.2 20.9 2.9 21 3.1 20.9-6.2 21 9.9 20.9-9.4 21-19.5 21 1.8 20.9-1.7 21-.1 20.9-.5 21-8.5"/></g><g><path fill="none" stroke="#ddd" stroke-linecap="round" stroke-linejoin="round" stroke-width="1" d="m44.5 230.5 20.9.4 21-34.1 21 22.7 20.9 2.5 21-3.6 20.9-8.2 21-24 20.9-18.8 21 7.9 21-58.6 20.9 29.5 21-27.2 20.9-.7 21-9.6 20.9 9.1 21-5.8 20.9-5.2 21 18.6 21 41.9 20.9-29.9 21 24.3 20.9-4.8 21 9 20.9-15 21-7.4 21-6.1 20.9 15.3 21 5.3 20.9 6.9 21 10.7"/></g><g><path fill="none" stroke="#ddd" stroke-linecap="round" stroke-linejoin="round" stroke-width="1" d="m44.5 448.5 20.9-12.7 21-16.7 21 14.6 20.9-.4 21 12.1 20.9 10.6 21 8.7 20.9-.4 21-38.6 21 13.8 20.9 8.6 21 2.3 20.9 29.6 21 .9 20.9-16.5 21-4.3 20.9 13.8 21 37.7 21-30.3 20.9-11.4 21 4.8 20.9-35 21 4 20.9 13.4 21-18.2 21 11.7 20.9-13 21-2.3 20.9 11.4 21-3.4"/></g><g><path fill="none" stroke="#ddd" stroke-linecap="round" stroke-linejoin="round" stroke-width="1" d="m44.5 303.3 20.9 1.1 21-.7 21 1.1 20.9.4 21 .6 20.9.9 21-.2h20.9l21-.6 21 1.4 20.9.3 21 .8 20.9-1 21 .6 20.9-.1 21 .8 20.9-1 21 .6 21-.9 20.9.6 21 1.8 20.9.2 21 3.7 20.9-1.4 21-2.4 21 1.3 20.9-1.4 21 .9 20.9-.5 21 .3"/></g><g><path fill="none" stroke="#ddd" stroke-linecap="round" stroke-linejoin="round" stroke-width="1" d="m44.5 224.9 20.9 7.4 21-64.9 21 35.1 20.9 14.6 21-1.5 20.9 19.4 21 3 20.9-9.1 21-7 21-5.3 20.9 7 21 2.7 20.9-10.8 21-7.4 20.9-15.5 21-12.2 20.9-5.5 21-6.9 21 21.3 20.9-8.4 21 5.9 20.9 27.4 21 5.7 20.9-3.2 21 14.7 21-1.5 20.9-1.8 21-14.2 20.9 2.6 21 5.1"/></g><g><path fill="none" stroke="#ddd" stroke-linecap="round" stroke-linejoin="round" stroke-width="1" d="m44.5 311.9 20.9 2 21-2.8 21 .4 20.9 9.6 21 .6 20.9.6 21 3.5 20.9-2.7 21-1h21l20.9-1 21 3.9 20.9 14.6 21 6.5 20.9 12 21 8.9 20.9 3.1 21 3.9 21-17.3 20.9 4.9 21 4.7 20.9-5.5 21-2.7 20.9-2.6 21-8.4 21-4.7 20.9-1.6 21-6 20.9 2.3 21 6"/></g><g><path fill="none" stroke="#ddd" stroke-linecap="round" stroke-linejoin="round" stroke-width="1" d="m44.5 300.7 20.9-.2 21-.3 21 .2 20.9-.3 21 .2 20.9-.1 21-.1 20.9.1 21 .4 21 3 20.9.3 21-.2 20.9-1 21 .1 20.9-.1 21 .5 20.9.1 21 .1h21l20.9.2 21 .6 20.9-1.3 21 .7 20.9-15.7 21 15.4 21-14.4 20.9-1.2 21-1.6 20.9-.1 21 .8"/></g><g><path fill="none" stroke="#fff" stroke-linecap="butt" stroke-linejoin="round" stroke-width="2.5" d="m44.5 321.7 20.9 6.7 21-18.8 21 9.3 20.9-2.8 21 .2 20.9 4.7 21-6.9 20.9-26.8 21-23 21-11.2 20.9-5.6 21-17.9 20.9-26.7 21-6 20.9-16.9 21-12.8 20.9 30.5 21 22.8 21 22.2 20.9 2.9 21 3.1 20.9-6.2 21 9.9 20.9-9.4 21-19.5 21 1.8 20.9-1.7 21-.1 20.9-.5 21-8.5"/><path fill="none" stroke="#286BBB" stroke-linecap="butt" stroke-linejoin="round" stroke-width="1.5" d="m44.5 321.7 20.9 6.7 21-18.8 21 9.3 20.9-2.8 21 .2 20.9 4.7 21-6.9 20.9-26.8 21-23 21-11.2 20.9-5.6 21-17.9 20.9-26.7 21-6 20.9-16.9 21-12.8 20.9 30.5 21 22.8 21 22.2 20.9 2.9 21 3.1 20.9-6.2 21 9.9 20.9-9.4 21-19.5 21 1.8 20.9-1.7 21-.1 20.9-.5 21-8.5"/><g><circle cx="44.5" cy="321.7" r="1.8" fill="#286BBB"/><circle cx="65.4" cy="328.4" r="1.8" fill="#286BBB"/><circle cx="86.4" cy="309.6" r="1.8" fill="#286BBB"/><circle cx="107.4" cy="318.9" r="1.8" fill="#286BBB"/><circle cx="128.3" cy="316.1" r="1.8" fill="#286BBB"/><circle cx="149.3" cy="316.3" r="1.8" fill="#286BBB"/><circle cx="170.2" cy="321" r="1.8" fill="#286BBB"/><circle cx="191.2" cy="314.1" r="1.8" fill="#286BBB"/><circle cx="212.1" cy="287.3" r="1.8" fill="#286BBB"/><circle cx="233.1" cy="264.3" r="1.8" fill="#286BBB"/><circle cx="254.1" cy="253.1" r="1.8" fill="#286BBB"/><circle cx="275" cy="247.5" r="1.8" fill="#286BBB"/><circle cx="296" cy="229.6" r="1.8" fill="#286BBB"/><circle cx="316.9" cy="202.9" r="1.8" fill="#286BBB"/><circle cx="337.9" cy="196.9" r="1.8" fill="#286BBB"/><circle cx="358.8" cy="180" r="1.8" fill="#286BBB"/><circle cx="379.8" cy="167.2" r="1.8" fill="#286BBB"/><circle cx="400.7" cy="197.7" r="1.8" fill="#286BBB"/><circle cx="421.7" cy="220.5" r="1.8" fill="#286BBB"/><circle cx="442.7" cy="242.7" r="1.8" fill="#286BBB"/><circle cx="463.6" cy="245.6" r="1.8" fill="#286BBB"/><circle cx="484.6" cy="248.7" r="1.8" fill="#286BBB"/><circle cx="505.5" cy="242.5" r="1.8" fill="#286BBB"/><circle cx="526.5" cy="252.4" r="1.8" fill="#286BBB"/><circle cx="547.4" cy="243" r="1.8" fill="#286BBB"/><circle cx="568.4" cy="223.5" r="1.8" fill="#286BBB"/><circle cx="589.4" cy="225.3" r="1.8" fill="#286BBB"/><circle cx="610.3" cy="223.6" r="1.8" fill="#286BBB"/><circle cx="631.3" cy="223.5" r="1.8" fill="#286BBB"/><circle cx="652.2" cy="223" r="1.8" fill="#286BBB"/><circle cx="673.2" cy="214.5" r="1.8" fill="#286BBB"/></g></g><g><path fill="none" stroke="#fff" stroke-linecap="butt" stroke-linejoin="round" stroke-width="2.5" d="m44.5 230.5 20.9.4 21-34.1 21 22.7 20.9 2.5 21-3.6 20.9-8.2 21-24 20.9-18.8 21 7.9 21-58.6 20.9 29.5 21-27.2 20.9-.7 21-9.6 20.9 9.1 21-5.8 20.9-5.2 21 18.6 21 41.9 20.9-29.9 21 24.3 20.9-4.8 21 9 20.9-15 21-7.4 21-6.1 20.9 15.3 21 5.3 20.9 6.9 21 10.7"/><path fill="none" stroke="#18470F" stroke-linecap="butt" stroke-linejoin="round" stroke-width="1.5" d="m44.5 230.5 20.9.4 21-34.1 21 22.7 20.9 2.5 21-3.6 20.9-8.2 21-24 20.9-18.8 21 7.9 21-58.6 20.9 29.5 21-27.2 20.9-.7 21-9.6 20.9 9.1 21-5.8 20.9-5.2 21 18.6 21 41.9 20.9-29.9 21 24.3 20.9-4.8 21 9 20.9-15 21-7.4 21-6.1 20.9 15.3 21 5.3 20.9 6.9 21 10.7"/><g><circle cx="44.5" cy="230.5" r="1.8" fill="#18470F"/><circle cx="65.4" cy="230.9" r="1.8" fill="#18470F"/><circle cx="86.4" cy="196.8" r="1.8" fill="#18470F"/><circle cx="107.4" cy="219.5" r="1.8" fill="#18470F"/><circle cx="128.3" cy="222" r="1.8" fill="#18470F"/><circle cx="149.3" cy="218.4" r="1.8" fill="#18470F"/><circle cx="170.2" cy="210.2" r="1.8" fill="#18470F"/><circle cx="191.2" cy="186.2" r="1.8" fill="#18470F"/><circle cx="212.1" cy="167.4" r="1.8" fill="#18470F"/><circle cx="233.1" cy="175.3" r="1.8" fill="#18470F"/><circle cx="254.1" cy="116.7" r="1.8" fill="#18470F"/><circle cx="275" cy="146.2" r="1.8" fill="#18470F"/><circle cx="296" cy="119" r="1.8" fill="#18470F"/><circle cx="316.9" cy="118.3" r="1.8" fill="#18470F"/><circle cx="337.9" cy="108.7" r="1.8" fill="#18470F"/><circle cx="358.8" cy="117.8" r="1.8" fill="#18470F"/><circle cx="379.8" cy="112" r="1.8" fill="#18470F"/><circle cx="400.7" cy="106.8" r="1.8" fill="#18470F"/><circle cx="421.7" cy="125.4" r="1.8" fill="#18470F"/><circle cx="442.7" cy="167.3" r="1.8" fill="#18470F"/><circle cx="463.6" cy="137.4" r="1.8" fill="#18470F"/><circle cx="484.6" cy="161.7" r="1.8" fill="#18470F"/><circle cx="505.5" cy="156.9" r="1.8" fill="#18470F"/><circle cx="526.5" cy="165.9" r="1.8" fill="#18470F"/><circle cx="547.4" cy="150.9" r="1.8" fill="#18470F"/><circle cx="568.4" cy="143.5" r="1.8" fill="#18470F"/><circle cx="589.4" cy="137.4" r="1.8" fill="#18470F"/><circle cx="610.3" cy="152.7" r="1.8" fill="#18470F"/><circle cx="631.3" cy="158" r="1.8" fill="#18470F"/><circle cx="652.2" cy="164.9" r="1.8" fill="#18470F"/><circle cx="673.2" cy="175.6" r="1.8" fill="#18470F"/></g></g><g><path fill="none" stroke="#fff" stroke-linecap="butt" stroke-linejoin="round" stroke-width="2.5" d="m44.5 448.5 20.9-12.7 21-16.7 21 14.6 20.9-.4 21 12.1 20.9 10.6 21 8.7 20.9-.4 21-38.6 21 13.8 20.9 8.6 21 2.3 20.9 29.6 21 .9 20.9-16.5 21-4.3 20.9 13.8 21 37.7 21-30.3 20.9-11.4 21 4.8 20.9-35 21 4 20.9 13.4 21-18.2 21 11.7 20.9-13 21-2.3 20.9 11.4 21-3.4"/><path fill="none" stroke="#CF0A66" stroke-linecap="butt" stroke-linejoin="round" stroke-width="1.5" d="m44.5 448.5 20.9-12.7 21-16.7 21 14.6 20.9-.4 21 12.1 20.9 10.6 21 8.7 20.9-.4 21-38.6 21 13.8 20.9 8.6 21 2.3 20.9 29.6 21 .9 20.9-16.5 21-4.3 20.9 13.8 21 37.7 21-30.3 20.9-11.4 21 4.8 20.9-35 21 4 20.9 13.4 21-18.2 21 11.7 20.9-13 21-2.3 20.9 11.4 21-3.4"/><g><circle cx="44.5" cy="448.5" r="1.8" fill="#CF0A66"/><circle cx="65.4" cy="435.8" r="1.8" fill="#CF0A66"/><circle cx="86.4" cy="419.1" r="1.8" fill="#CF0A66"/><circle cx="107.4" cy="433.7" r="1.8" fill="#CF0A66"/><circle cx="128.3" cy="433.3" r="1.8" fill="#CF0A66"/><circle cx="149.3" cy="445.4" r="1.8" fill="#CF0A66"/><circle cx="170.2" cy="456" r="1.8" fill="#CF0A66"/><circle cx="191.2" cy="464.7" r="1.8" fill="#CF0A66"/><circle cx="212.1" cy="464.3" r="1.8" fill="#CF0A66"/><circle cx="233.1" cy="425.7" r="1.8" fill="#CF0A66"/><circle cx="254.1" cy="439.5" r="1.8" fill="#CF0A66"/><circle cx="275" cy="448.1" r="1.8" fill="#CF0A66"/><circle cx="296" cy="450.4" r="1.8" fill="#CF0A66"/><circle cx="316.9" cy="480" r="1.8" fill="#CF0A66"/><circle cx="337.9" cy="480.9" r="1.8" fill="#CF0A66"/><circle cx="358.8" cy="464.4" r="1.8" fill="#CF0A66"/><circle cx="379.8" cy="460.1" r="1.8" fill="#CF0A66"/><circle cx="400.7" cy="473.9" r="1.8" fill="#CF0A66"/><circle cx="421.7" cy="511.6" r="1.8" fill="#CF0A66"/><circle cx="442.7" cy="481.3" r="1.8" fill="#CF0A66"/><circle cx="463.6" cy="469.9" r="1.8" fill="#CF0A66"/><circle cx="484.6" cy="474.7" r="1.8" fill="#CF0A66"/><circle cx="505.5" cy="439.7" r="1.8" fill="#CF0A66"/><circle cx="526.5" cy="443.7" r="1.8" fill="#CF0A66"/><circle cx="547.4" cy="457.1" r="1.8" fill="#CF0A66"/><circle cx="568.4" cy="438.9" r="1.8" fill="#CF0A66"/><circle cx="589.4" cy="450.6" r="1.8" fill="#CF0A66"/><circle cx="610.3" cy="437.6" r="1.8" fill="#CF0A66"/><circle cx="631.3" cy="435.3" r="1.8" fill="#CF0A66"/><circle cx="652.2" cy="446.7" r="1.8" fill="#CF0A66"/><circle cx="673.2" cy="443.3" r="1.8" fill="#CF0A66"/></g></g><g><path fill="none" stroke="#fff" stroke-linecap="butt" stroke-linejoin="round" stroke-width="2.5" d="m44.5 303.3 20.9 1.1 21-.7 21 1.1 20.9.4 21 .6 20.9.9 21-.2h20.9l21-.6 21 1.4 20.9.3 21 .8 20.9-1 21 .6 20.9-.1 21 .8 20.9-1 21 .6 21-.9 20.9.6 21 1.8 20.9.2 21 3.7 20.9-1.4 21-2.4 21 1.3 20.9-1.4 21 .9 20.9-.5 21 .3"/><path fill="none" stroke="#6D3E91" stroke-linecap="butt" stroke-linejoin="round" stroke-width="1.5" d="m44.5 303.3 20.9 1.1 21-.7 21 1.1 20.9.4 21 .6 20.9.9 21-.2h20.9l21-.6 21 1.4 20.9.3 21 .8 20.9-1 21 .6 20.9-.1 21 .8 20.9-1 21 .6 21-.9 20.9.6 21 1.8 20.9.2 21 3.7 20.9-1.4 21-2.4 21 1.3 20.9-1.4 21 .9 20.9-.5 21 .3"/><g><circle cx="44.5" cy="303.3" r="1.8" fill="#6D3E91"/><circle cx="65.4" cy="304.4" r="1.8" fill="#6D3E91"/><circle cx="86.4" cy="303.7" r="1.8" fill="#6D3E91"/><circle cx="107.4" cy="304.8" r="1.8" fill="#6D3E91"/><circle cx="128.3" cy="305.2" r="1.8" fill="#6D3E91"/><circle cx="149.3" cy="305.8" r="1.8" fill="#6D3E91"/><circle cx="170.2" cy="306.7" r="1.8" fill="#6D3E91"/><circle cx="191.2" cy="306.5" r="1.8" fill="#6D3E91"/><circle cx="212.1" cy="306.5" r="1.8" fill="#6D3E91"/><circle cx="233.1" cy="305.9" r="1.8" fill="#6D3E91"/><circle cx="254.1" cy="307.3" r="1.8" fill="#6D3E91"/><circle cx="275" cy="307.6" r="1.8" fill="#6D3E91"/><circle cx="296" cy="308.4" r="1.8" fill="#6D3E91"/><circle cx="316.9" cy="307.4" r="1.8" fill="#6D3E91"/><circle cx="337.9" cy="308" r="1.8" fill="#6D3E91"/><circle cx="358.8" cy="307.9" r="1.8" fill="#6D3E91"/><circle cx="379.8" cy="308.7" r="1.8" fill="#6D3E91"/><circle cx="400.7" cy="307.7" r="1.8" fill="#6D3E91"/><circle cx="421.7" cy="308.3" r="1.8" fill="#6D3E91"/><circle cx="442.7" cy="307.4" r="1.8" fill="#6D3E91"/><circle cx="463.6" cy="308" r="1.8" fill="#6D3E91"/><circle cx="484.6" cy="309.8" r="1.8" fill="#6D3E91"/><circle cx="505.5" cy="310" r="1.8" fill="#6D3E91"/><circle cx="526.5" cy="313.7" r="1.8" fill="#6D3E91"/><circle cx="547.4" cy="312.3" r="1.8" fill="#6D3E91"/><circle cx="568.4" cy="309.9" r="1.8" fill="#6D3E91"/><circle cx="589.4" cy="311.2" r="1.8" fill="#6D3E91"/><circle cx="610.3" cy="309.8" r="1.8" fill="#6D3E91"/><circle cx="631.3" cy="310.7" r="1.8" fill="#6D3E91"/><circle cx="652.2" cy="310.2" r="1.8" fill="#6D3E91"/><circle cx="673.2" cy="310.5" r="1.8" fill="#6D3E91"/></g></g><g><path fill="none" stroke="#fff" stroke-linecap="butt" stroke-linejoin="round" stroke-width="2.5" d="m44.5 224.9 20.9 7.4 21-64.9 21 35.1 20.9 14.6 21-1.5 20.9 19.4 21 3 20.9-9.1 21-7 21-5.3 20.9 7 21 2.7 20.9-10.8 21-7.4 20.9-15.5 21-12.2 20.9-5.5 21-6.9 21 21.3 20.9-8.4 21 5.9 20.9 27.4 21 5.7 20.9-3.2 21 14.7 21-1.5 20.9-1.8 21-14.2 20.9 2.6 21 5.1"/><path fill="none" stroke="#BE5915" stroke-linecap="butt" stroke-linejoin="round" stroke-width="1.5" d="m44.5 224.9 20.9 7.4 21-64.9 21 35.1 20.9 14.6 21-1.5 20.9 19.4 21 3 20.9-9.1 21-7 21-5.3 20.9 7 21 2.7 20.9-10.8 21-7.4 20.9-15.5 21-12.2 20.9-5.5 21-6.9 21 21.3 20.9-8.4 21 5.9 20.9 27.4 21 5.7 20.9-3.2 21 14.7 21-1.5 20.9-1.8 21-14.2 20.9 2.6 21 5.1"/><g><circle cx="44.5" cy="224.9" r="1.8" fill="#BE5915"/><circle cx="65.4" cy="232.3" r="1.8" fill="#BE5915"/><circle cx="86.4" cy="167.4" r="1.8" fill="#BE5915"/><circle cx="107.4" cy="202.5" r="1.8" fill="#BE5915"/><circle cx="128.3" cy="217.1" r="1.8" fill="#BE5915"/><circle cx="149.3" cy="215.6" r="1.8" fill="#BE5915"/><circle cx="170.2" cy="235" r="1.8" fill="#BE5915"/><circle cx="191.2" cy="238" r="1.8" fill="#BE5915"/><circle cx="212.1" cy="228.9" r="1.8" fill="#BE5915"/><circle cx="233.1" cy="221.9" r="1.8" fill="#BE5915"/><circle cx="254.1" cy="216.6" r="1.8" fill="#BE5915"/><circle cx="275" cy="223.6" r="1.8" fill="#BE5915"/><circle cx="296" cy="226.3" r="1.8" fill="#BE5915"/><circle cx="316.9" cy="215.5" r="1.8" fill="#BE5915"/><circle cx="337.9" cy="208.1" r="1.8" fill="#BE5915"/><circle cx="358.8" cy="192.6" r="1.8" fill="#BE5915"/><circle cx="379.8" cy="180.4" r="1.8" fill="#BE5915"/><circle cx="400.7" cy="174.9" r="1.8" fill="#BE5915"/><circle cx="421.7" cy="168" r="1.8" fill="#BE5915"/><circle cx="442.7" cy="189.3" r="1.8" fill="#BE5915"/><circle cx="463.6" cy="180.9" r="1.8" fill="#BE5915"/><circle cx="484.6" cy="186.8" r="1.8" fill="#BE5915"/><circle cx="505.5" cy="214.2" r="1.8" fill="#BE5915"/><circle cx="526.5" cy="219.9" r="1.8" fill="#BE5915"/><circle cx="547.4" cy="216.7" r="1.8" fill="#BE5915"/><circle cx="568.4" cy="231.4" r="1.8" fill="#BE5915"/><circle cx="589.4" cy="229.9" r="1.8" fill="#BE5915"/><circle cx="610.3" cy="228.1" r="1.8" fill="#BE5915"/><circle cx="631.3" cy="213.9" r="1.8" fill="#BE5915"/><circle cx="652.2" cy="216.5" r="1.8" fill="#BE5915"/><circle cx="673.2" cy="221.6" r="1.8" fill="#BE5915"/></g></g><g><path fill="none" stroke="#fff" stroke-linecap="butt" stroke-linejoin="round" stroke-width="2.5" d="m44.5 311.9 20.9 2 21-2.8 21 .4 20.9 9.6 21 .6 20.9.6 21 3.5 20.9-2.7 21-1h21l20.9-1 21 3.9 20.9 14.6 21 6.5 20.9 12 21 8.9 20.9 3.1 21 3.9 21-17.3 20.9 4.9 21 4.7 20.9-5.5 21-2.7 20.9-2.6 21-8.4 21-4.7 20.9-1.6 21-6 20.9 2.3 21 6"/><path fill="none" stroke="#2C8465" stroke-linecap="butt" stroke-linejoin="round" stroke-width="1.5" d="m44.5 311.9 20.9 2 21-2.8 21 .4 20.9 9.6 21 .6 20.9.6 21 3.5 20.9-2.7 21-1h21l20.9-1 21 3.9 20.9 14.6 21 6.5 20.9 12 21 8.9 20.9 3.1 21 3.9 21-17.3 20.9 4.9 21 4.7 20.9-5.5 21-2.7 20.9-2.6 21-8.4 21-4.7 20.9-1.6 21-6 20.9 2.3 21 6"/><g><circle cx="44.5" cy="311.9" r="1.8" fill="#2C8465"/><circle cx="65.4" cy="313.9" r="1.8" fill="#2C8465"/><circle cx="86.4" cy="311.1" r="1.8" fill="#2C8465"/><circle cx="107.4" cy="311.5" r="1.8" fill="#2C8465"/><circle cx="128.3" cy="321.1" r="1.8" fill="#2C8465"/><circle cx="149.3" cy="321.7" r="1.8" fill="#2C8465"/><circle cx="170.2" cy="322.3" r="1.8" fill="#2C8465"/><circle cx="191.2" cy="325.8" r="1.8" fill="#2C8465"/><circle cx="212.1" cy="323.1" r="1.8" fill="#2C8465"/><circle cx="233.1" cy="322.1" r="1.8" fill="#2C8465"/><circle cx="254.1" cy="322.1" r="1.8" fill="#2C8465"/><circle cx="275" cy="321.1" r="1.8" fill="#2C8465"/><circle cx="296" cy="325" r="1.8" fill="#2C8465"/><circle cx="316.9" cy="339.6" r="1.8" fill="#2C8465"/><circle cx="337.9" cy="346.1" r="1.8" fill="#2C8465"/><circle cx="358.8" cy="358.1" r="1.8" fill="#2C8465"/><circle cx="379.8" cy="367" r="1.8" fill="#2C8465"/><circle cx="400.7" cy="370.1" r="1.8" fill="#2C8465"/><circle cx="421.7" cy="374" r="1.8" fill="#2C8465"/><circle cx="442.7" cy="356.7" r="1.8" fill="#2C8465"/><circle cx="463.6" cy="361.6" r="1.8" fill="#2C8465"/><circle cx="484.6" cy="366.3" r="1.8" fill="#2C8465"/><circle cx="505.5" cy="360.8" r="1.8" fill="#2C8465"/><circle cx="526.5" cy="358.1" r="1.8" fill="#2C8465"/><circle cx="547.4" cy="355.5" r="1.8" fill="#2C8465"/><circle cx="568.4" cy="347.1" r="1.8" fill="#2C8465"/><circle cx="589.4" cy="342.4" r="1.8" fill="#2C8465"/><circle cx="610.3" cy="340.8" r="1.8" fill="#2C8465"/><circle cx="631.3" cy="334.8" r="1.8" fill="#2C8465"/><circle cx="652.2" cy="337.1" r="1.8" fill="#2C8465"/><circle cx="673.2" cy="343.1" r="1.8" fill="#2C8465"/></g></g><g><path fill="none" stroke="#fff" stroke-linecap="butt" stroke-linejoin="round" stroke-width="2.5" d="m44.5 300.7 20.9-.2 21-.3 21 .2 20.9-.3 21 .2 20.9-.1 21-.1 20.9.1 21 .4 21 3 20.9.3 21-.2 20.9-1 21 .1 20.9-.1 21 .5 20.9.1 21 .1h21l20.9.2 21 .6 20.9-1.3 21 .7 20.9-15.7 21 15.4 21-14.4 20.9-1.2 21-1.6 20.9-.1 21 .8"/><path fill="none" stroke="#C15065" stroke-linecap="butt" stroke-linejoin="round" stroke-width="1.5" d="m44.5 300.7 20.9-.2 21-.3 21 .2 20.9-.3 21 .2 20.9-.1 21-.1 20.9.1 21 .4 21 3 20.9.3 21-.2 20.9-1 21 .1 20.9-.1 21 .5 20.9.1 21 .1h21l20.9.2 21 .6 20.9-1.3 21 .7 20.9-15.7 21 15.4 21-14.4 20.9-1.2 21-1.6 20.9-.1 21 .8"/><g><circle cx="44.5" cy="300.7" r="1.8" fill="#C15065"/><circle cx="65.4" cy="300.5" r="1.8" fill="#C15065"/><circle cx="86.4" cy="300.2" r="1.8" fill="#C15065"/><circle cx="107.4" cy="300.4" r="1.8" fill="#C15065"/><circle cx="128.3" cy="300.1" r="1.8" fill="#C15065"/><circle cx="149.3" cy="300.3" r="1.8" fill="#C15065"/><circle cx="170.2" cy="300.2" r="1.8" fill="#C15065"/><circle cx="191.2" cy="300.1" r="1.8" fill="#C15065"/><circle cx="212.1" cy="300.2" r="1.8" fill="#C15065"/><circle cx="233.1" cy="300.6" r="1.8" fill="#C15065"/><circle cx="254.1" cy="303.6" r="1.8" fill="#C15065"/><circle cx="275" cy="303.9" r="1.8" fill="#C15065"/><circle cx="296" cy="303.7" r="1.8" fill="#C15065"/><circle cx="316.9" cy="302.7" r="1.8" fill="#C15065"/><circle cx="337.9" cy="302.8" r="1.8" fill="#C15065"/><circle cx="358.8" cy="302.7" r="1.8" fill="#C15065"/><circle cx="379.8" cy="303.2" r="1.8" fill="#C15065"/><circle cx="400.7" cy="303.3" r="1.8" fill="#C15065"/><circle cx="421.7" cy="303.4" r="1.8" fill="#C15065"/><circle cx="442.7" cy="303.4" r="1.8" fill="#C15065"/><circle cx="463.6" cy="303.6" r="1.8" fill="#C15065"/><circle cx="484.6" cy="304.2" r="1.8" fill="#C15065"/><circle cx="505.5" cy="302.9" r="1.8" fill="#C15065"/><circle cx="526.5" cy="303.6" r="1.8" fill="#C15065"/><circle cx="547.4" cy="287.9" r="1.8" fill="#C15065"/><circle cx="568.4" cy="303.3" r="1.8" fill="#C15065"/><circle cx="589.4" cy="288.9" r="1.8" fill="#C15065"/><circle cx="610.3" cy="287.7" r="1.8" fill="#C15065"/><circle cx="631.3" cy="286.1" r="1.8" fill="#C15065"/><circle cx="652.2" cy="286" r="1.8" fill="#C15065"/><circle cx="673.2" cy="286.8" r="1.8" fill="#C15065"/></g></g></g></g></g><g class="SourcesFooter" style="fill:#5b5b5b"><text x="16" y="563.4" style="font-size:13px;line-height:1.2"><tspan x="16" y="563.4"><tspan style="font-weight:700">Data source:</tspan> Global Carbon Budget (2022); Population based on various sources (2023)</tspan></text><text x="16" y="581" font-size="13"><tspan x="16" y="581.01"><a href="https://ourworldindata.org/co2-and-greenhouse-gas-emissions" style="fill:#5b5b5b;text-decoration:underline" target="_blank">OurWorldInData.org/co2-and-greenhouse-gas-emissions</a> | <a href="https://creativecommons.org/licenses/by/4.0/" style="fill:#5b5b5b;text-decoration:underline" target="_blank">CC BY</a></tspan></text></g></svg>